<svg xmlns="http://www.w3.org/2000/svg" xmlns:xlink="http://www.w3.org/1999/xlink" width="281.71" height="306.439" viewBox="0 0 281.71 306.439"><defs><linearGradient id="a" x1="0.602" y1="0.461" x2="-1.291" y2="2.08" gradientUnits="objectBoundingBox"><stop offset="0" stop-color="#fbc359"/><stop offset="1" stop-color="#f07b3f"/></linearGradient></defs><g transform="translate(-46.644 -138.055)"><path d="M111.313-.024c78.849,51.6,111.313,49.836,111.313,111.313s-40.15,180.1-111.313,111.313S0,172.765,0,111.289,32.464-51.62,111.313-.024Z" transform="matrix(0.966, -0.259, 0.259, 0.966, 50.316, 209.377)" fill="#2BA952" opacity="0.2"/><path d="M195.845,30.421H170.494V5.07A5.021,5.021,0,0,0,165.423,0H84.461A15.19,15.19,0,0,0,69.25,15.211V157.853a15.19,15.19,0,0,0,15.211,15.211H185.7a15.19,15.19,0,0,0,15.211-15.211V35.491A5.021,5.021,0,0,0,195.845,30.421Z" transform="translate(52.75 191)" fill="url(#a)"/><path d="M379.337,40.562H343.845a5.067,5.067,0,0,1-5.07-5.07V0h11.051a15.219,15.219,0,0,1,10.7,4.431L374.91,18.825a15.247,15.247,0,0,1,4.427,10.685Z" transform="translate(-126.201 191)" fill="#f07b3f"/><circle cx="6.422" cy="6.422" r="6.422" transform="translate(215.527 267.053)" fill="#393e46"/><circle cx="6.422" cy="6.422" r="6.422" transform="translate(146.234 267.053)" fill="#393e46"/><path d="M243.752,345.546a2.366,2.366,0,0,1-2.366-2.366,13.69,13.69,0,0,0-27.379,0,2.366,2.366,0,1,1-4.732,0,18.422,18.422,0,0,1,36.844,0A2.366,2.366,0,0,1,243.752,345.546Z" transform="translate(-40.474 -23.985)" fill="#393e46"/><g transform="matrix(0.946, 0.326, -0.326, 0.946, 93.635, -1.57)" opacity="0.6"><path d="M106.68,8.995h-7.5V1.5a1.484,1.484,0,0,0-1.5-1.5H73.747a4.491,4.491,0,0,0-4.5,4.5V46.672a4.491,4.491,0,0,0,4.5,4.5h29.935a4.491,4.491,0,0,0,4.5-4.5V10.494A1.484,1.484,0,0,0,106.68,8.995Z" transform="translate(202.889 201.478)" fill="url(#a)"/><path d="M350.768,11.993H340.274a1.5,1.5,0,0,1-1.5-1.5V0h3.268A4.5,4.5,0,0,1,345.2,1.31l4.254,4.256a4.508,4.508,0,0,1,1.309,3.159Z" transform="translate(-39.699 201.478)" fill="#f07b3f"/></g><g transform="matrix(0.966, -0.259, 0.259, 0.966, -257.436, 123.68)" opacity="0.6"><path d="M102.129,7.9H95.545V1.317A1.3,1.3,0,0,0,94.228,0H73.2a3.945,3.945,0,0,0-3.95,3.95V41a3.945,3.945,0,0,0,3.95,3.95H99.5a3.945,3.945,0,0,0,3.95-3.95V9.218A1.3,1.3,0,0,0,102.129,7.9Z" transform="translate(202.889 201.478)" fill="url(#a)"/><path d="M349.31,10.535h-9.218a1.316,1.316,0,0,1-1.317-1.317V0h2.87a3.953,3.953,0,0,1,2.778,1.151l3.737,3.738a3.96,3.96,0,0,1,1.15,2.775Z" transform="translate(-42.975 201.478)" fill="#f07b3f"/></g><g transform="translate(276 220)" fill="#fff" stroke="#2BA952" stroke-width="3"><circle cx="9.5" cy="9.5" r="9.5" stroke="none"/><circle cx="9.5" cy="9.5" r="8" fill="none"/></g><g transform="translate(80 339)" fill="#fff" stroke="#e1814d" stroke-width="3"><circle cx="9.5" cy="9.5" r="9.5" stroke="none"/><circle cx="9.5" cy="9.5" r="8" fill="none"/></g></g></svg>