<svg xmlns="http://www.w3.org/2000/svg" width="144.56" height="259.9" viewBox="0 0 144.56 259.9">
  <g id="Group_2092" data-name="Group 2092" transform="translate(-9215 108)">
    <g id="Man" transform="translate(9215 -93.763)">
      <path id="Shape" d="M424.327,1004.326v8.016l4.259,3.257h-8.016v-11.272h3.757" transform="translate(-403.537 -769.935)" fill="#2BA952" fill-rule="evenodd"/>
      <path id="Path_4276" data-name="Path 4276" d="M527.911,997.659l1.253,10.521,4.509,3.257H524.9l-1-13.777h4.008" transform="translate(-468.043 -765.773)" fill="#2BA952" fill-rule="evenodd"/>
      <path id="Path_4277" data-name="Path 4277" d="M606.359,455.355l-7.176,10.617,8.856,4.421,7.866-10.364-9.547-4.673" transform="translate(-515.038 -427.235)" fill="#fff0c6" fill-rule="evenodd"/>
      <path id="Path_4278" data-name="Path 4278" d="M595.981,485.208a1.152,1.152,0,0,0,.411,1.662l5.627,3.011a1.152,1.152,0,0,0,.809.105l1.552-.367a1.15,1.15,0,0,0,.653-.425l.883-1.163-8.855-4.421-1.08,1.6" transform="translate(-512.915 -444.874)" fill="#131412" fill-rule="evenodd"/>
      <path id="Path_4279" data-name="Path 4279" d="M606.108,497.143l6.165-9.8V486.5l-4.109,4.849-1.784-3.661a.57.57,0,0,0-.806-.23.543.543,0,0,0-.253.573l.788,3.791L603.3,490.5l-1.493,4.321,4.3,2.319" transform="translate(-516.674 -446.676)" fill="#f9b6a8" fill-rule="evenodd"/>
      <path id="Path_4280" data-name="Path 4280" d="M501.4,484.907s12.274-10.759,26.678-12.393l1.378,5.254a54.584,54.584,0,0,0-21.919,18.286L501.4,484.907" transform="translate(-453.999 -437.947)" fill="#fda578" fill-rule="evenodd"/>
      <path id="Path_4281" data-name="Path 4281" d="M628.558,456.921a1.153,1.153,0,0,0-.49-1.768l-7.877-3.148a1.152,1.152,0,0,0-1.382.425l-.529.782,9.546,4.673.732-.965" transform="translate(-526.959 -425.093)" fill="#131412" fill-rule="evenodd"/>
      <path id="Path_4282" data-name="Path 4282" d="M410.157,394.373s2.348-.47,4.227,2.724,3.476,5.448,3.476,5.448l-1.128.658s2.161,3.663,1.6,4.415a29.1,29.1,0,0,1-2.818,2.63l2.161,4.6-8.455,2.63L406.869,411l-3.381-11.46,6.669-5.166" transform="translate(-392.873 -389.152)" fill="#f9b6a8" fill-rule="evenodd"/>
      <path id="Path_4283" data-name="Path 4283" d="M407.838,400.956l-3.57,1.409s-7.045-10.427-4.321-12.963c0,0-1.848-1.4,3.757-4.885,3.476-2.161,3.757-4.979,6.2-3.663s-.094,5.448-5.824,7.7c0,0,1.785.658,4.791,7.421l-1.127.376s-3.945-2.619-4.509-.845,3.664,2.536,3.664,2.536l.939,2.912" transform="translate(-390.272 -380.518)" fill="#393e46" fill-rule="evenodd"/>
      <path id="Path_4284" data-name="Path 4284" d="M429.986,410.215a.625.625,0,1,0-.624.624.624.624,0,0,0,.624-.624" transform="translate(-408.635 -398.667)" fill="#131412" fill-rule="evenodd"/>
      <path id="Path_4285" data-name="Path 4285" d="M423.984,406.075a.189.189,0,0,1-.174-.259,2.378,2.378,0,0,1,2.223-1.464.188.188,0,0,1,.183.192.174.174,0,0,1-.191.184,2.035,2.035,0,0,0-1.868,1.229.187.187,0,0,1-.174.118" transform="translate(-405.551 -395.396)" fill="#131412" fill-rule="evenodd"/>
      <path id="Path_4286" data-name="Path 4286" d="M414.921,422.7a.19.19,0,0,1-.058-.009l-2.995-.981a.188.188,0,1,1,.118-.357l2.994.981a.188.188,0,0,1-.059.366" transform="translate(-398.024 -406.005)" fill="#f07b3f" fill-rule="evenodd"/>
      <path id="Path_4287" data-name="Path 4287" d="M459.742,470.711l-18.812,26.3s-20.947-51.352-40.893-48.314c0,0-26.24.72-24.737,43.054s5.01,56.612,5.01,56.612L430.66,542.6l-3.507-30.31s10.772,8.517,20.04-5.26,17.534-33.566,17.534-33.566l-4.985-2.755" transform="translate(-375.238 -422.999)" fill="#f07b3f" fill-rule="evenodd"/>
      <path id="Path_4288" data-name="Path 4288" d="M439.086,698.83s8.2,65.941,8.7,71.452-1.753,43.335-1.753,43.335H437.02s-3.757-39.328-5.01-43.586-13.464-53.417-13.464-53.417l-2.755-.752s-1.315,54.168-2.067,58.176-7.766,43.085-7.766,43.085h-7.014s.342-41.087,0-45.84c-3.006-41.833-8.453-55.788-10.207-66.693l50.349-5.761" transform="translate(-383.665 -579.227)" fill="#393e46" fill-rule="evenodd"/>
      <path id="Path_4289" data-name="Path 4289" d="M550.071,574.005l1.5,2.755V571.9l-1.5,2.1" transform="translate(-484.379 -499.992)" fill="#cc612a" fill-rule="evenodd"/>
      <path id="Path_4290" data-name="Path 4290" d="M493.428,600.267,481.4,589.5l12.634,16.048-.611-5.277" transform="translate(-441.513 -510.974)" fill="#cc612a" fill-rule="evenodd"/>
      <path id="Path_4291" data-name="Path 4291" d="M439.694,703.358l-50.553,3.457-.4-2.224,50.349-5.762.606,4.528" transform="translate(-383.666 -579.227)" fill="#1c202e" fill-rule="evenodd"/>
      <path id="Path_4292" data-name="Path 4292" d="M447.42,742.082,439.4,740.83l8,4.51.017-3.258" transform="translate(-415.295 -605.445)" fill="#1c202e" fill-rule="evenodd"/>
      <path id="Path_4293" data-name="Path 4293" d="M572.405,472.513h5.135s7.291,2.32,6.889,3.1-6.513-.85-6.513-.85v2l-4.133,1-1.377-5.254" transform="translate(-498.321 -437.947)" fill="#f9b6a8" fill-rule="evenodd"/>
      <path id="Path_4294" data-name="Path 4294" d="M434.281,433.1l-.726-2.142,1.711,1.3-.985.845" transform="translate(-411.643 -412.008)" fill="#f07b3f" fill-rule="evenodd"/>
      <path id="Path_4295" data-name="Path 4295" d="M618.9,470.343a3.624,3.624,0,1,0-4.484,2.483,3.624,3.624,0,0,0,4.484-2.483" transform="translate(-522.906 -433.705)" fill="#fffffe" fill-rule="evenodd"/>
      <path id="Path_4296" data-name="Path 4296" d="M615.082,475.936l-.466-2.95a.564.564,0,1,1,1.114-.176l.236,1.494,3.872-1.739a.564.564,0,0,1,.461,1.029l-5.217,2.342" transform="translate(-524.667 -437.835)" fill="#393e46" fill-rule="evenodd"/>
      <path id="Path_4297" data-name="Path 4297" d="M567.459,449.089l8.031,2.624-.233.714-8.032-2.624.234-.714" transform="translate(-495.088 -423.324)" fill="#2BA952" fill-rule="evenodd"/>
      <path id="Path_4298" data-name="Path 4298" d="M575.9,424.084l8.045,7.3-.505.556-8.045-7.3.5-.557" transform="translate(-500.191 -407.714)" fill="#2BA952" fill-rule="evenodd"/>
      <path id="Path_4299" data-name="Path 4299" d="M601.947,420.488l2.046,5.5-.7.262-2.046-5.5.7-.262" transform="translate(-516.323 -405.469)" fill="#2BA952" fill-rule="evenodd"/>
    </g>
    <g id="Flower" transform="translate(9305.503 54.339)">
      <path id="Path_4300" data-name="Path 4300" d="M728.357,949.728l3.994,30.623h25.032l3.728-30.623H728.357" transform="translate(-719.244 -883.954)" fill="#f07b3f" fill-rule="evenodd"/>
      <path id="Path_4301" data-name="Path 4301" d="M728.947,954.255h31.612l.551-4.527H728.357l.59,4.527" transform="translate(-719.243 -883.954)" fill="#e06d32" fill-rule="evenodd"/>
      <path id="Path_4302" data-name="Path 4302" d="M713.474,933.427l2.663,7.989h38.257l2.485-7.989H713.474" transform="translate(-709.952 -873.778)" fill="#f07b3f" fill-rule="evenodd"/>
      <path id="Path_4303" data-name="Path 4303" d="M704.1,899.087s4.261-3.462,5.859-2.13,6.657,11.983,6.657,11.983h6.125s-10.918-25.031-18.641-9.853" transform="translate(-704.102 -849.291)" fill="#008b44" fill-rule="evenodd"/>
      <path id="Path_4304" data-name="Path 4304" d="M782.77,906s11.184-14.38,22.368-16.51A40.521,40.521,0,0,1,789.693,906H782.77" transform="translate(-753.211 -846.348)" fill="#008b44" fill-rule="evenodd"/>
      <path id="Path_4305" data-name="Path 4305" d="M729.269,819.326s-2.936,27.162,7.9,42.873h4.516s-5.419-26.9-12.419-42.873" transform="translate(-719.586 -802.549)" fill="#00a650" fill-rule="evenodd"/>
      <path id="Path_4306" data-name="Path 4306" d="M752.163,774.677s-1.864,42.34,3.462,59.649h5.193s5.459-31.422-8.655-59.649" transform="translate(-733.907 -774.677)" fill="#008b44" fill-rule="evenodd"/>
      <path id="Path_4307" data-name="Path 4307" d="M773.2,837.423c6.323-18.878,5.726-47.133,28.094-57.785-13.855,13.973-3.995,33.553-24.5,57.785h-3.6" transform="translate(-747.238 -777.774)" fill="#00a650" fill-rule="evenodd"/>
    </g>
    <g id="Group_2091" data-name="Group 2091" transform="translate(9309.688 -108)">
      <path id="Path_4308" data-name="Path 4308" d="M845.2,469.865l29.809,5.01L869,498.428l-29.418-7.521Z" transform="translate(-839.579 -469.865)" fill="#fff0c6" fill-rule="evenodd"/>
      <path id="Path_4309" data-name="Path 4309" d="M874.03,474.71l-18.621,8.725L845.98,470l-.781-.131-.19.711,7.487,10.671L839.8,490.064l-.225.842.722.185,12.844-8.922,1.886,2.688,4.83-2.263,8.395,15.643.741.189.206-.807-8.321-15.5,13.946-6.534.18-.707Z" transform="translate(-839.579 -469.864)" fill="#2BA952" fill-rule="evenodd"/>
    </g>
  </g>
</svg>
