<svg xmlns="http://www.w3.org/2000/svg" width="115.579" height="249.383" viewBox="0 0 115.579 249.383">
  <g id="Group_2102" data-name="Group 2102" transform="translate(-130 -85.048)">
    <g id="Group_2074" data-name="Group 2074" transform="translate(-6567 2830)">
      <g id="Group_2073" data-name="Group 2073" transform="translate(6697 -2745)">
        <g id="Group_2069" data-name="Group 2069" transform="translate(0 10.843)">
          <path id="Stripes" d="M-761.751,352.46l-.042,0a33.836,33.836,0,0,0-4.031-.242.345.345,0,0,1-.345-.345.345.345,0,0,1,.345-.345,34.58,34.58,0,0,1,4.114.247.345.345,0,0,1,.3.384.345.345,0,0,1-.342.3m-12.159.725a.346.346,0,0,1-.335-.263.345.345,0,0,1,.253-.417,34.059,34.059,0,0,1,4.055-.736.344.344,0,0,1,.384.3.345.345,0,0,1-.3.383,33.4,33.4,0,0,0-3.973.721.355.355,0,0,1-.082.01m20.068,1.222a.347.347,0,0,1-.123-.022,33.232,33.232,0,0,0-3.855-1.2.344.344,0,0,1-.252-.417.345.345,0,0,1,.417-.252,34.143,34.143,0,0,1,3.935,1.226.345.345,0,0,1,.2.445.344.344,0,0,1-.322.222m-27.688,1.664a.344.344,0,0,1-.306-.185.345.345,0,0,1,.145-.465,34.045,34.045,0,0,1,3.76-1.692.345.345,0,0,1,.445.2.345.345,0,0,1-.2.445,33.548,33.548,0,0,0-3.684,1.658.338.338,0,0,1-.16.04m34.895,2.128a.342.342,0,0,1-.2-.061,33.694,33.694,0,0,0-3.452-2.093.344.344,0,0,1-.145-.466.344.344,0,0,1,.466-.144,34.19,34.19,0,0,1,3.524,2.135.344.344,0,0,1,.087.48.343.343,0,0,1-.284.149m-41.6,2.5a.343.343,0,0,1-.258-.116.345.345,0,0,1,.03-.487,34.485,34.485,0,0,1,3.244-2.542.345.345,0,0,1,.48.088.345.345,0,0,1-.088.48,33.606,33.606,0,0,0-3.179,2.491.345.345,0,0,1-.229.087m47.694,2.9a.344.344,0,0,1-.258-.116,33.7,33.7,0,0,0-2.855-2.856.345.345,0,0,1-.029-.487.344.344,0,0,1,.487-.029,34.4,34.4,0,0,1,2.914,2.915.345.345,0,0,1-.029.487.346.346,0,0,1-.229.087m-53.1,3.189a.345.345,0,0,1-.2-.061.345.345,0,0,1-.088-.48,34.461,34.461,0,0,1,2.546-3.24.345.345,0,0,1,.487-.029.345.345,0,0,1,.029.487,33.518,33.518,0,0,0-2.495,3.175.345.345,0,0,1-.284.149m57.734,3.512a.345.345,0,0,1-.306-.185,33.646,33.646,0,0,0-2.093-3.455.345.345,0,0,1,.087-.48.345.345,0,0,1,.48.088A34.2,34.2,0,0,1-735.6,369.8a.345.345,0,0,1-.145.466.342.342,0,0,1-.16.04M-797.438,374a.34.34,0,0,1-.122-.023.345.345,0,0,1-.2-.445,34.164,34.164,0,0,1,1.7-3.757.345.345,0,0,1,.466-.145.344.344,0,0,1,.145.466,33.512,33.512,0,0,0-1.662,3.68.345.345,0,0,1-.323.222m64.418,3.926a.344.344,0,0,1-.335-.263,33.209,33.209,0,0,0-1.2-3.857.345.345,0,0,1,.2-.445.345.345,0,0,1,.444.2,33.78,33.78,0,0,1,1.226,3.938.344.344,0,0,1-.252.417.339.339,0,0,1-.082.01m-66.369,3.981-.042,0a.345.345,0,0,1-.3-.383,34.064,34.064,0,0,1,.742-4.054.346.346,0,0,1,.417-.252.345.345,0,0,1,.252.417,33.485,33.485,0,0,0-.727,3.972.345.345,0,0,1-.342.3m67.342,4.171a.345.345,0,0,1-.345-.345v-.071a33.956,33.956,0,0,0-.24-4.026.344.344,0,0,1,.3-.383.343.343,0,0,1,.384.3,34.649,34.649,0,0,1,.245,4.114v.066a.345.345,0,0,1-.345.345m-67.35,3.974a.345.345,0,0,1-.342-.3,34.692,34.692,0,0,1-.241-4.08.359.359,0,0,1,.345-.361.331.331,0,0,1,.345.328v.033a33.941,33.941,0,0,0,.237,4,.345.345,0,0,1-.3.383l-.041,0m66.362,4.111a.346.346,0,0,1-.083-.01.345.345,0,0,1-.252-.417,33.614,33.614,0,0,0,.731-3.972.343.343,0,0,1,.383-.3.344.344,0,0,1,.3.384,34.049,34.049,0,0,1-.746,4.053.344.344,0,0,1-.334.262m-64.425,3.8a.346.346,0,0,1-.323-.222A34.1,34.1,0,0,1-799,393.8a.345.345,0,0,1,.254-.417.345.345,0,0,1,.417.253,33.282,33.282,0,0,0,1.2,3.859.345.345,0,0,1-.2.444.344.344,0,0,1-.122.022m61.521,3.806a.343.343,0,0,1-.161-.039.345.345,0,0,1-.144-.466,33.5,33.5,0,0,0,1.666-3.678.345.345,0,0,1,.445-.2.346.346,0,0,1,.2.445,34.069,34.069,0,0,1-1.7,3.755.343.343,0,0,1-.3.183m-57.737,3.41a.345.345,0,0,1-.284-.149,34.356,34.356,0,0,1-2.132-3.528.344.344,0,0,1,.145-.466.345.345,0,0,1,.466.145,33.645,33.645,0,0,0,2.089,3.457.345.345,0,0,1-.088.48.345.345,0,0,1-.2.061m53.1,3.28a.344.344,0,0,1-.229-.087.344.344,0,0,1-.028-.487,33.756,33.756,0,0,0,2.5-3.173.345.345,0,0,1,.48-.087.344.344,0,0,1,.087.48,34.4,34.4,0,0,1-2.549,3.238.344.344,0,0,1-.258.116m-47.7,2.821a.341.341,0,0,1-.229-.087,34.377,34.377,0,0,1-2.911-2.917.344.344,0,0,1,.03-.487.345.345,0,0,1,.487.029,33.748,33.748,0,0,0,2.852,2.859.344.344,0,0,1,.029.487.343.343,0,0,1-.257.116m41.594,2.574a.345.345,0,0,1-.284-.149.345.345,0,0,1,.089-.48,33.825,33.825,0,0,0,3.182-2.489.346.346,0,0,1,.487.03.344.344,0,0,1-.03.487,34.513,34.513,0,0,1-3.247,2.54.344.344,0,0,1-.2.061m-34.9,2.065a.346.346,0,0,1-.16-.04,34.251,34.251,0,0,1-3.521-2.139.345.345,0,0,1-.087-.48.344.344,0,0,1,.48-.087,33.579,33.579,0,0,0,3.45,2.1.345.345,0,0,1,.144.466.346.346,0,0,1-.306.184m27.684,1.715a.345.345,0,0,1-.323-.223.346.346,0,0,1,.2-.445,33.292,33.292,0,0,0,3.686-1.654.345.345,0,0,1,.465.146.345.345,0,0,1-.145.465,33.99,33.99,0,0,1-3.762,1.689.343.343,0,0,1-.122.022m-20.072,1.184a.365.365,0,0,1-.083-.01,34.25,34.25,0,0,1-3.934-1.231.345.345,0,0,1-.2-.445.344.344,0,0,1,.445-.2,33.262,33.262,0,0,0,3.854,1.205.345.345,0,0,1,.252.418.345.345,0,0,1-.334.262m12.157.748a.345.345,0,0,1-.342-.3.346.346,0,0,1,.3-.383,33.521,33.521,0,0,0,3.974-.717.344.344,0,0,1,.417.253.345.345,0,0,1-.254.417,34.265,34.265,0,0,1-4.056.732l-.041,0m-4.073.237h0a34.666,34.666,0,0,1-4.114-.251.345.345,0,0,1-.3-.384.345.345,0,0,1,.384-.3,33.8,33.8,0,0,0,4.031.246.345.345,0,0,1,.345.346.345.345,0,0,1-.345.344" transform="translate(816.242 -351.526)" fill="#2BA952" fill-rule="evenodd"/>
          <path id="Shape" d="M-719.105,1016.081l-1.035,4.311,4.138,3.621h-10l2.5-10.174,4.4,2.242" transform="translate(767.778 -785.426)" fill="#393e46" fill-rule="evenodd"/>
          <path id="Path_4105" data-name="Path 4105" d="M-687.861,1013.839v10.174H-697l4.57-3.276v-6.208l4.57-.69" transform="translate(748.777 -785.426)" fill="#2BA952" fill-rule="evenodd"/>
          <path id="Path_4106" data-name="Path 4106" d="M-542,759.082l2.069-7.242h8.277l-5.518,2.759-1.724,5.518-3.1-1.035" transform="translate(647.232 -613.782)" fill="#2BA952" fill-rule="evenodd"/>
          <path id="Path_4107" data-name="Path 4107" d="M-736.35,481.591a20.666,20.666,0,0,0,3.836,2.541,21.055,21.055,0,0,0,13.851,1.819c4.685-1,9.393-4.275,9.993-9.028a8.726,8.726,0,0,0-.16-2.994,31.337,31.337,0,0,0-3.258-1.221c-9.1-2.2-18.488,1.891-24.262,8.883" transform="translate(774.556 -430.526)" fill="#19243c" fill-rule="evenodd"/>
          <path id="Path_4108" data-name="Path 4108" d="M-730.063,425.546a4.751,4.751,0,0,0-1.522-1.435c-1.96-1.1-4.462-.138-6.584-.855-1.731-.585-2.992-2.22-4.736-2.761-4.079-1.265-8.307,2.579-9.729,6.066-1.53,3.755-.583,8.485,1.543,11.846.807,1.276,4.3,3.419,4.5,4.781a5.506,5.506,0,0,0,.5,1.856,1.734,1.734,0,0,0,1.5.99c1.382-.066,2.006-2.2,3.061-2.911a29.383,29.383,0,0,1,5.772-3.032,22.324,22.324,0,0,1,13.446-.969,31.276,31.276,0,0,1,3.324,1.287,15.9,15.9,0,0,0-3.685-6.849,20.841,20.841,0,0,0-2.894-2.976c-.79-.6-1.629-.739-2.3-1.536-.873-1.033-1.4-2.393-2.188-3.5" transform="translate(785.718 -396.548)" fill="#19243c" fill-rule="evenodd"/>
          <path id="Path_4109" data-name="Path 4109" d="M-727.348,446.706c-1.458-.016-2.263-.752-3.306-3.073,0,0,1-4.221-.151-4.523s-2.288,2.847-2.288,2.847-2.666-1.919-4.544-1.747-3.157,1.632-5.459,0c0,0,.137,3.935,1.757,5.895,1.53,1.85,4.429,4.764,4.429,4.764l9.562-4.162" transform="translate(778.976 -408.891)" fill="#f7a8a2" fill-rule="evenodd"/>
          <path id="Path_4110" data-name="Path 4110" d="M-826.722,483.11l-3.561-1.87s-29.527,38.858-10.411,52.473l13.972-50.6" transform="translate(847.134 -436.505)" fill="#2BA952" fill-rule="evenodd"/>
          <path id="Path_4111" data-name="Path 4111" d="M-783.832,455.54l1.457-.049.89-1.018-1.326-.792a.863.863,0,0,1-.322-1.141l.143-.274,3.627,1.621-1.423,3.405,2.638-1.592a.9.9,0,0,1,1.186.231l-5.827,5.692-1.043-6.083" transform="translate(805.663 -417.523)" fill="#f9b6a8" fill-rule="evenodd"/>
          <path id="Path_4112" data-name="Path 4112" d="M-663.892,747.839l5.69,38.281,10.691-31.383,5.518,1.724s-4.828,50.7-18.968,50.7-22.417-39.315-22.417-39.315l-5.863,73.113h-7.242l-1.931-40.82L-702,749.218l38.108-1.379" transform="translate(752.053 -611.161)" fill="#00a650" fill-rule="evenodd"/>
          <path id="Path_4113" data-name="Path 4113" d="M-683.419,747.839l-48.388,6.725v-4.735l48.388-1.99" transform="translate(771.581 -611.162)" fill="#008b44" fill-rule="evenodd"/>
          <path id="Path_4114" data-name="Path 4114" d="M-783.152,465.335l2.805.348-.042.342-2.805-.347.042-.342" transform="translate(805.246 -426.086)" fill="#ff516c" fill-rule="evenodd"/>
          <path id="Path_4115" data-name="Path 4115" d="M-729.033,465.338-738,469.822l10.691,4.656,3.3-1.856a12.982,12.982,0,0,0-5.024-7.283" transform="translate(775.637 -426.087)" fill="#f9b6a8" fill-rule="evenodd"/>
          <path id="Path_4116" data-name="Path 4116" d="M-784.065,485.132s-4.794-13.369-23.417-11.513-22.589,30.308-24.141,61.347-1.035,48.8-1.035,48.8c13-1.391,30.151-4.036,48.593-7.07V545.543l11.817-23.336-11.817-8.852V485.132" transform="translate(837.704 -431.397)" fill="#393e46" fill-rule="evenodd"/>
          <path id="Path_4117" data-name="Path 4117" d="M-780.059,1012.7l-1.733,6.9,3.966,3.1H-788l3.276-10.863,4.665.862" transform="translate(808.394 -784.115)" fill="#393e46" fill-rule="evenodd"/>
          <path id="Path_4118" data-name="Path 4118" d="M-812.558,784.327l15.712,41.7-6.208,36.729h7.874s11.439-30.66,10.4-39.212-5.677-42.429-5.677-42.429l-22.106,3.216" transform="translate(824.482 -632.959)" fill="#2e3a54" fill-rule="evenodd"/>
          <path id="Path_4119" data-name="Path 4119" d="M-751.971,518.576s-21.727,28.969-27.417,28.28-13.105-12.243-12.243-35.177-.069-27.935-.069-27.935h5.242l6.035,46.213s20.865-53.455,32.073-55.7,21.9,7.932,22.589,28.969,3.1,65.181,3.1,65.181l-34.522,1.38-.33-29,5.538-22.215" transform="translate(810.818 -431.733)" fill="#2BA952" fill-rule="evenodd"/>
          <path id="Path_4120" data-name="Path 4120" d="M-739.67,772.839s4,44.144,3.483,46.558-8.449,38.8-8.449,38.8h-6.035l2.759-36.212-17.063-45.462,25.3-3.682" transform="translate(793.309 -627.54)" fill="#19243c" fill-rule="evenodd"/>
          <path id="Path_4121" data-name="Path 4121" d="M-698.386,552.894l10,13.795,7.242-40.35h5.173s-.69,55.239-11.208,56.934-22.73-14.712-22.73-14.712l11.522-15.666" transform="translate(757.234 -466.051)" fill="#393e46" fill-rule="evenodd"/>
          <path id="Path_4122" data-name="Path 4122" d="M-689.583,443.839l-8.965,1.552-2.991.632L-712,451.253l5.024,7.284,2.219-1.248,1.552,1.38c1.552,1.379,6.38-1.725,12.323-4.273s1.3-10.556,1.3-10.556" transform="translate(758.604 -412.003)" fill="#f9b6a8" fill-rule="evenodd"/>
          <path id="Path_4123" data-name="Path 4123" d="M-667.284,459.863a.691.691,0,0,0-.691-.691.691.691,0,0,0-.691.691.691.691,0,0,0,.691.691.691.691,0,0,0,.691-.691" transform="translate(730.215 -422.048)" fill="#131412" fill-rule="evenodd"/>
          <path id="Path_4124" data-name="Path 4124" d="M-659.541,471.568a.581.581,0,0,0-.581-.581.581.581,0,0,0-.581.581.581.581,0,0,0,.581.581.581.581,0,0,0,.581-.581" transform="translate(724.999 -429.788)" fill="#131412" fill-rule="evenodd"/>
          <path id="Combined-Shape" d="M-674.057,433.919a3.929,3.929,0,0,1,1.764-1.043c3.391-.69,4.828,4.713,4.828,4.713s3.851-.862,4.656,1.128c.292.723,2.069,4.333-3.506,5.656-5.208,1.236-6.554-4-7.757-7.1-2.27,1.6-7.338,2.389-7.338,2.389l.325-2.069-4.2,1.811C-686.139,438.591-677.777,430.9-674.057,433.919Z" transform="translate(741.141 -404.781)" fill="#2BA952" fill-rule="evenodd"/>
          <path id="Path_4125" data-name="Path 4125" d="M-679.218,437.4c-1.837.25-1.782,4.771-1.782,4.771l2.436.492s.9-5.473-.654-5.263" transform="translate(738.295 -407.78)" fill="#f9b6a8" fill-rule="evenodd"/>
          <path id="Path_4126" data-name="Path 4126" d="M-662.473,456.96a.158.158,0,0,1-.031,0,.172.172,0,0,1-.139-.2,1.447,1.447,0,0,0-.613-1.434.173.173,0,0,1-.049-.239.173.173,0,0,1,.239-.049,1.8,1.8,0,0,1,.763,1.784.172.172,0,0,1-.169.141" transform="translate(726.721 -419.319)" fill="#131412" fill-rule="evenodd"/>
          <path id="Path_4127" data-name="Path 4127" d="M-655.848,469.018a.172.172,0,0,1-.172-.169,1.819,1.819,0,0,0-.894-1.519.172.172,0,0,1-.063-.236.172.172,0,0,1,.235-.063,2.172,2.172,0,0,1,1.066,1.813.172.172,0,0,1-.17.175h0" transform="translate(722.573 -427.181)" fill="#131412" fill-rule="evenodd"/>
          <path id="Path_4128" data-name="Path 4128" d="M-677.814,444.443l-.029,0a.173.173,0,0,1-.141-.2,12.409,12.409,0,0,0,.163-2.722.173.173,0,0,1,.164-.181.172.172,0,0,1,.181.164,12.753,12.753,0,0,1-.168,2.8.173.173,0,0,1-.17.143" transform="translate(736.321 -410.364)" fill="#f58491" fill-rule="evenodd"/>
          <path id="Path_4129" data-name="Path 4129" d="M-675.281,470.822l-1.012-1.212a.172.172,0,0,1,.022-.243.173.173,0,0,1,.243.022l.813.973,3.442-2.327a.173.173,0,0,1,.24.046.173.173,0,0,1-.046.239l-3.7,2.5" transform="translate(735.238 -427.835)" fill="#ff516c" fill-rule="evenodd"/>
          <path id="Path_4130" data-name="Path 4130" d="M-682.724,476.035a.174.174,0,0,1-.136-.066l-1.437-1.833a.173.173,0,0,1,.029-.242.173.173,0,0,1,.242.03l1.437,1.833a.173.173,0,0,1-.029.242.173.173,0,0,1-.106.037" transform="translate(740.479 -431.669)" fill="#ff516c" fill-rule="evenodd"/>
          <path id="Path_4131" data-name="Path 4131" d="M-693.183,479.781l-1.149-1.61.249,2.116.9-.507" transform="translate(747.03 -434.495)" fill="#ff516c" fill-rule="evenodd"/>
          <path id="Path_4132" data-name="Path 4132" d="M-621.673,473.442l7.069,2.689-4.574,12.4-6.072-.64,3.577-14.449" transform="translate(701.772 -431.397)" fill="#131412" fill-rule="evenodd"/>
          <path id="Path_4133" data-name="Path 4133" d="M-807.483,440.877l7.2-1.789,2.881,16.894h-6.317l-3.765-15.105" transform="translate(821.158 -408.89)" fill="#131412" fill-rule="evenodd"/>
          <path id="Path_4134" data-name="Path 4134" d="M-627.161,509.469s-1.207-3.88.874-5.58l-.443,1.786,1.38-.086,4.138-5,2.242,1.725-3.018,7.156h-5.173" transform="translate(703.252 -449.181)" fill="#f9b6a8" fill-rule="evenodd"/>
          <path id="Path_4135" data-name="Path 4135" d="M-789.741,481.8s-.577-9.159-1.595-9.1c-.693.043-.388,4.09-.388,4.09l-2-5.807-2.989,1.558,1.728,9.254h5.242" transform="translate(814.101 -429.788)" fill="#f9b6a8" fill-rule="evenodd"/>
          <path id="Path_4136" data-name="Path 4136" d="M-776.93,459.025l-.7-.362-.317.362h1.016" transform="translate(801.807 -421.715)" fill="#ff516c" fill-rule="evenodd"/>
          <path id="Path_4137" data-name="Path 4137" d="M-734.573,458.624A.424.424,0,0,0-735,458.2a.424.424,0,0,0-.424.424.424.424,0,0,0,.424.424.424.424,0,0,0,.424-.424" transform="translate(773.948 -421.411)" fill="#131412" fill-rule="evenodd"/>
          <path id="Path_4138" data-name="Path 4138" d="M-724.554,451.339a.515.515,0,0,0-.515-.515.515.515,0,0,0-.515.515.515.515,0,0,0,.515.515.515.515,0,0,0,.515-.515" transform="translate(767.503 -416.579)" fill="#131412" fill-rule="evenodd"/>
          <path id="Path_4139" data-name="Path 4139" d="M-724.477,461.649l-2.105-3.549a.172.172,0,0,1,.06-.236.173.173,0,0,1,.236.06l1.918,3.233.94-.641a.172.172,0,0,1,.24.045.173.173,0,0,1-.046.24l-1.244.848" transform="translate(768.173 -421.175)" fill="#ff516c" fill-rule="evenodd"/>
          <path id="Path_4140" data-name="Path 4140" d="M-740.543,454.365a.172.172,0,0,1-.172-.166,1.187,1.187,0,0,1,1.09-1.192.173.173,0,0,1,.181.163.173.173,0,0,1-.163.182.842.842,0,0,0-.764.835.174.174,0,0,1-.167.179h-.006" transform="translate(777.416 -418.009)" fill="#131412" fill-rule="evenodd"/>
          <path id="Path_4141" data-name="Path 4141" d="M-731.735,446.674a.157.157,0,0,1-.036,0,.173.173,0,0,1-.133-.2,1.822,1.822,0,0,1,1.553-1.4.172.172,0,0,1,.19.153.172.172,0,0,1-.153.19,1.489,1.489,0,0,0-1.252,1.132.172.172,0,0,1-.169.137" transform="translate(771.646 -412.804)" fill="#131412" fill-rule="evenodd"/>
          <path id="Path_4142" data-name="Path 4142" d="M-711.03,444.31a.188.188,0,0,1-.054-.009.173.173,0,0,1-.109-.218l.809-2.438a.173.173,0,0,1,.218-.11.172.172,0,0,1,.109.218l-.809,2.438a.173.173,0,0,1-.164.118" transform="translate(758.082 -410.488)" fill="#ff516c" fill-rule="evenodd"/>
          <path id="Path_4143" data-name="Path 4143" d="M-676.5,591l5.069-6.495-2.679,9.791-2.39-3.3" transform="translate(735.347 -504.158)" fill="#d9b34a" fill-rule="evenodd"/>
          <path id="Path_4144" data-name="Path 4144" d="M-762.217,629.006l-1.694,3.046,1.19-6.906.5,3.86" transform="translate(792.612 -530.782)" fill="#d9b34a" fill-rule="evenodd"/>
          <path id="Path_4145" data-name="Path 4145" d="M-705.152,660.881l-.075-6.582-6.671-7.083,6.746,13.665" transform="translate(758.537 -545.241)" fill="#1c202e" fill-rule="evenodd"/>
          <path id="Path_4146" data-name="Path 4146" d="M-651.535,637.773l-1.035,5.346-1.089-8.276,2.124,2.93" transform="translate(720.383 -537.135)" fill="#1c202e" fill-rule="evenodd"/>
          <path id="Path_4147" data-name="Path 4147" d="M-575,853.281l.69,4.713.307-7.639-1,2.926" transform="translate(668.852 -678.323)" fill="#008b44" fill-rule="evenodd"/>
          <path id="Path_4148" data-name="Path 4148" d="M-670.113,788.839H-680l11.036,5.863Z" transform="translate(737.64 -638.022)" fill="#008b44" fill-rule="evenodd"/>
          <path id="Path_4149" data-name="Path 4149" d="M-739.67,772.839l-25.3,7.76v-4.078l25.3-3.682" transform="translate(793.309 -627.54)" fill="#2e3a54" fill-rule="evenodd"/>
        </g>
      </g>
    </g>
    <g id="Group_2081" data-name="Group 2081" transform="translate(-8272.435 2681.065)">
      <g id="Group_2080" data-name="Group 2080" transform="translate(8437.686 -2596.017)">
        <path id="Path_4207" data-name="Path 4207" d="M77.466,412.306l-16.652-.081-1.655-3.881,5.851-.425-1.02-4.255,11.572-1.5-11.081-3.852.979-.233,17.818,2.907-.981,6.64-1.4,3.649Z" transform="translate(-58.701 -396.09)" fill="#6c63ff"/>
        <path id="Path_4208" data-name="Path 4208" d="M98.42,655.11a1.91,1.91,0,0,1,1.635.558s-.45.354-1.417-.136Z" transform="translate(-96.051 -640.601)" fill="#6c63ff"/>
        <path id="Path_4209" data-name="Path 4209" d="M88.012,655.09a1.905,1.905,0,0,0-.331,1.7s.531-.213.589-1.3Z" transform="translate(-85.751 -640.597)" fill="#6c63ff"/>
        <path id="Path_4210" data-name="Path 4210" d="M84.18,622.906s.409-.75,2.043.3a.917.917,0,0,1-.94.463A1.108,1.108,0,0,1,84.18,622.906Z" transform="translate(-82.504 -609.732)" fill="#6c63ff"/>
        <path id="Path_4211" data-name="Path 4211" d="M63.82,626.854s-.848-.1-.93,1.844a.918.918,0,0,0,.919-.5A1.106,1.106,0,0,0,63.82,626.854Z" transform="translate(-62.25 -613.734)" fill="#6c63ff"/>
        <path id="Path_4212" data-name="Path 4212" d="M429.957,626.94a3.34,3.34,0,0,0-.227,3.381l-8.805,3.819-.845.177-.389-1.7.26-2.149v-1.174Z" transform="translate(-401.692 -613.817)" fill="#f7f7f7"/>
        <path id="Path_4213" data-name="Path 4213" d="M59.16,565.612l12.187-2.222L87.5,565.963l-10.03,3.611Z" transform="translate(-58.701 -553.358)" fill="#6c63ff"/>
        <path id="Path_4214" data-name="Path 4214" d="M59.16,565.612l12.187-2.222L87.5,565.963l-10.03,3.611Z" transform="translate(-58.701 -553.358)" fill="#f07b3f"/>
        <path id="Path_4215" data-name="Path 4215" d="M50.188,609.05a4.347,4.347,0,0,0,.174,4.154l18.073,3.916a4.275,4.275,0,0,1,.058-4.108Z" transform="translate(-49.729 -596.797)" fill="#d56932"/>
        <path id="Path_4217" data-name="Path 4217" d="M64.568,624.44a3.31,3.31,0,0,0,0,2.6" transform="translate(-63.571 -611.438)" opacity="0.1" style="isolation: isolate"/>
        <path id="Path_4218" data-name="Path 4218" d="M80.8,690.745l10.09-4.305s.564.122.2.535S81,691.159,81,691.159l-18.268-4.33Z" transform="translate(-62.098 -670.422)" fill="#f07b3f"/>
        <path id="Path_4220" data-name="Path 4220" d="M408.774,699.44a2.6,2.6,0,0,0,0,2.919" transform="translate(-390.895 -682.789)" opacity="0.1" style="isolation: isolate"/>
        <rect id="Rectangle_320" data-name="Rectangle 320" width="4.601" height="0.049" transform="translate(18.225 18.087) rotate(-18.45)" opacity="0.1" style="isolation: isolate"/>
        <rect id="Rectangle_321" data-name="Rectangle 321" width="5.606" height="0.049" transform="translate(18.223 18.478) rotate(-20.82)" opacity="0.1" style="isolation: isolate"/>
        <rect id="Rectangle_322" data-name="Rectangle 322" width="6.498" height="0.049" transform="matrix(0.925, -0.379, 0.379, 0.925, 18.253, 18.94)" opacity="0.1" style="isolation: isolate"/>
        <rect id="Rectangle_323" data-name="Rectangle 323" width="7.479" height="0.049" transform="translate(18.323 19.347) rotate(-24.31)" opacity="0.1" style="isolation: isolate"/>
        <rect id="Rectangle_324" data-name="Rectangle 324" width="8.18" height="0.049" transform="translate(18.377 19.545) rotate(-23.61)" opacity="0.1" style="isolation: isolate"/>
        <rect id="Rectangle_325" data-name="Rectangle 325" width="9.789" height="0.049" transform="matrix(0.918, -0.397, 0.397, 0.918, 18.49, 19.878)" opacity="0.1" style="isolation: isolate"/>
        <path id="Path_4221" data-name="Path 4221" d="M152.23,578.74l8.562-1.8,5.216,1-7.016,2.262Z" transform="translate(-147.243 -566.249)" fill="#fff" opacity="0.3" style="isolation: isolate"/>
        <path id="Path_4222" data-name="Path 4222" d="M445.452,616.27s.443.179.183.454-10.215,3.157-10.215,3.157Z" transform="translate(-416.657 -603.666)" fill="#f07b3f"/>
        <path id="Path_4223" data-name="Path 4223" d="M529.256,530.76a3.34,3.34,0,0,0-.227,3.381l-8.805,3.819-.845.178-.389-1.7.264-2.148v-1.176Z" transform="translate(-496.161 -522.316)" fill="#f7f7f7"/>
        <path id="Path_4224" data-name="Path 4224" d="M158.46,469.431l12.187-2.221,16.149,2.573-10.03,3.611Z" transform="translate(-153.17 -461.857)" fill="#393e46"/>
        <path id="Path_4225" data-name="Path 4225" d="M149.441,512.87a4.347,4.347,0,0,0,.173,4.154l18.073,3.916a4.275,4.275,0,0,1,.06-4.108Z" transform="translate(-144.153 -505.296)" fill="#1c202e"/>
        <path id="Path_4227" data-name="Path 4227" d="M163.863,528.26a3.312,3.312,0,0,0,0,2.6" transform="translate(-158.035 -519.937)" opacity="0.1" style="isolation: isolate"/>
        <path id="Path_4228" data-name="Path 4228" d="M180.093,594.565l10.09-4.305s.564.122.2.535-10.095,4.184-10.095,4.184l-18.268-4.33Z" transform="translate(-156.557 -578.921)" fill="#1c202e"/>
        <path id="Path_4230" data-name="Path 4230" d="M508.064,603.26a2.6,2.6,0,0,0,0,2.919" transform="translate(-485.355 -591.289)" opacity="0.1" style="isolation: isolate"/>
        <rect id="Rectangle_326" data-name="Rectangle 326" width="4.601" height="0.049" transform="translate(23.055 13.408) rotate(-18.45)" opacity="0.1" style="isolation: isolate"/>
        <rect id="Rectangle_327" data-name="Rectangle 327" width="5.606" height="0.049" transform="translate(23.055 13.8) rotate(-20.82)" opacity="0.1" style="isolation: isolate"/>
        <rect id="Rectangle_328" data-name="Rectangle 328" width="6.498" height="0.049" transform="matrix(0.925, -0.379, 0.379, 0.925, 23.083, 14.261)" opacity="0.1" style="isolation: isolate"/>
        <rect id="Rectangle_329" data-name="Rectangle 329" width="7.479" height="0.049" transform="translate(23.154 14.668) rotate(-24.31)" opacity="0.1" style="isolation: isolate"/>
        <rect id="Rectangle_330" data-name="Rectangle 330" width="8.18" height="0.049" transform="translate(23.207 14.865) rotate(-23.61)" opacity="0.1" style="isolation: isolate"/>
        <rect id="Rectangle_331" data-name="Rectangle 331" width="9.789" height="0.049" transform="matrix(0.918, -0.397, 0.397, 0.918, 23.321, 15.198)" opacity="0.1" style="isolation: isolate"/>
        <path id="Path_4231" data-name="Path 4231" d="M251.53,482.56l8.562-1.8,5.216,1-7.016,2.262Z" transform="translate(-241.713 -474.748)" fill="#fff" opacity="0.45" style="isolation: isolate"/>
        <path id="Path_4232" data-name="Path 4232" d="M544.78,520.09s.442.179.183.454S534.75,523.7,534.75,523.7Z" transform="translate(-511.154 -512.165)" fill="#1c202e"/>
        <path id="Path_4233" data-name="Path 4233" d="M538.685,420.73a6.24,6.24,0,0,0-.227,4.451l-8.805,2.749-.843.179-.389-1.7.26-2.149v-1.176Z" transform="translate(-505.132 -417.638)" fill="#f7f7f7"/>
        <path id="Path_4234" data-name="Path 4234" d="M167.89,359.4l12.187-2.222,16.149,2.573L186.2,363.364Z" transform="translate(-162.142 -357.18)" fill="#2BA952"/>
        <path id="Path_4235" data-name="Path 4235" d="M158.891,402.84a4.345,4.345,0,0,0,.172,4.154l18.073,3.916a4.274,4.274,0,0,1,.059-4.108Z" transform="translate(-153.143 -400.619)" fill="#ebc251"/>
        <path id="Path_4237" data-name="Path 4237" d="M173.3,418.23a3.31,3.31,0,0,0,0,2.6" transform="translate(-167.011 -415.26)" opacity="0.1" style="isolation: isolate"/>
        <path id="Path_4238" data-name="Path 4238" d="M189.533,492.146l10.09-3.235s.564.122.2.535-10.095,3.114-10.095,3.114l-18.268-4.33Z" transform="translate(-165.538 -481.855)" fill="#2BA952"/>
        <rect id="Rectangle_332" data-name="Rectangle 332" width="4.601" height="0.049" transform="translate(23.515 8.055) rotate(-18.45)" opacity="0.1" style="isolation: isolate"/>
        <rect id="Rectangle_333" data-name="Rectangle 333" width="5.606" height="0.049" transform="translate(23.514 8.447) rotate(-20.82)" opacity="0.1" style="isolation: isolate"/>
        <rect id="Rectangle_334" data-name="Rectangle 334" width="6.498" height="0.049" transform="matrix(0.925, -0.379, 0.379, 0.925, 23.542, 8.908)" opacity="0.1" style="isolation: isolate"/>
        <rect id="Rectangle_335" data-name="Rectangle 335" width="7.479" height="0.049" transform="translate(23.613 9.315) rotate(-24.31)" opacity="0.1" style="isolation: isolate"/>
        <rect id="Rectangle_336" data-name="Rectangle 336" width="8.18" height="0.049" transform="translate(23.667 9.513) rotate(-23.61)" opacity="0.1" style="isolation: isolate"/>
        <rect id="Rectangle_337" data-name="Rectangle 337" width="9.789" height="0.049" transform="matrix(0.918, -0.397, 0.397, 0.918, 23.78, 9.846)" opacity="0.1" style="isolation: isolate"/>
        <path id="Path_4240" data-name="Path 4240" d="M260.96,372.53l8.562-1.8,5.216,1-7.016,2.262Z" transform="translate(-250.684 -370.071)" fill="#fff" opacity="0.3" style="isolation: isolate"/>
        <path id="Path_4241" data-name="Path 4241" d="M554.21,410.06s.443.179.183.454-10.213,3.157-10.213,3.157Z" transform="translate(-520.126 -407.487)" fill="#2BA952"/>
      </g>
    </g>
  </g>
</svg>
