<svg xmlns="http://www.w3.org/2000/svg" width="149.213" height="281" viewBox="0 0 149.213 281">
  <g id="Group_2101" data-name="Group 2101" transform="translate(-108 -52)">
    <g id="Group_2071" data-name="Group 2071" transform="translate(-6844 2684.787)">
      <path id="Shape" d="M585.893,988.468H575.305l5.294-3.358-1.183-6.964h4.858Z" transform="translate(6405.612 -3340.255)" fill="#2BA952" fill-rule="evenodd"/>
      <path id="Path_4154" data-name="Path 4154" d="M735.906,783.293l5.605,7.337-6.353-2.612-3.612,1.99-1.37-3.234Z" transform="translate(6305.798 -3214.673)" fill="#2BA952" fill-rule="evenodd"/>
      <path id="Path_4155" data-name="Path 4155" d="M591.334,759.329l-3.114-32.708-41.774,1.208c.228,7.649.61,14.915,1.166,21.3,2.491,28.6,11.46,69.146,11.46,69.146h7.972L563.556,774l4.484-40.791s9.552,42.667,18.685,44.771c6.477,1.492,28.151-23.629,28.151-23.629l-2.74-5.72Z" transform="translate(6424.212 -3178.147)" fill="#393e46" fill-rule="evenodd"/>
      <path id="Path_4156" data-name="Path 4156" d="M588.682,731.471l-.462-4.85-41.774,1.208Z" transform="translate(6424.212 -3178.148)" fill="#1c202e" fill-rule="evenodd"/>
      <path id="Path_4157" data-name="Path 4157" d="M588.744,493.324a30.014,30.014,0,0,0-9.605-5.028c-2.789,4.179-8.052,7.977-13.315,5.525-3.629-1.811-4.09-5.272-3.893-8.88-.129-1.368-.453-4.763-.9-9.349-3.914,1.236-7.856,2.146-11.619,3.63a138.345,138.345,0,0,1-1.022,14.1c-2.128,14.876-3.2,46.108-2.412,72.716l43.206-.707-2.428-48.658,10.288-7.138C594.046,501.9,591.06,495.322,588.744,493.324Z" transform="translate(6424.685 -3016.36)" fill="#2BA952" fill-rule="evenodd"/>
      <path id="Path_4158" data-name="Path 4158" d="M661.15,578.217,662.8,581.4l10.033-6.708c-.462-1.223-.927-2.433-1.391-3.618Z" transform="translate(6350.286 -3077.901)" fill="#fffffe" fill-rule="evenodd"/>
      <path id="Combined-Shape" d="M691.788,637.784c.5,1.12,3.862,7.089,3.488,7.4s-2.678-3.171-2.678-3.171,2.367,4.539,1.744,4.664-3.176-4.415-3.176-4.415,1.993,5.472,1.37,5.721-2.865-4.975-2.865-4.975,1.245,5.472.622,5.6-2.367-6.342-2.367-6.342-1,4.229-1.619,3.98.5-6.716.5-6.716l-6.727-23.878-14.3-27.683,10.033-6.708c3.608,9.546,7.08,19.854,9.247,24.69C689.3,615.4,691.788,637.784,691.788,637.784Z" transform="translate(6347.301 -3084.46)" fill="#f9b6a8" fill-rule="evenodd"/>
      <path id="Path_4159" data-name="Path 4159" d="M542.946,298.283l-.33-.83a2.842,2.842,0,0,0-1.554-1.578c-1.765-.733-3.916-1.727-3.784-2.2.182-.653,3.768.508,3.768.508s-3.935-2.554-3.763-3.026c.374-1.026,4.6,1.763,4.6,1.763s-3.749-3.1-3.576-3.535c.374-.932,5.164,2.839,5.164,2.839s-4.323-3.958-3.2-4.238,7.406,6.01,7.406,6.01,1.869-3.451,2.242-3.171-1,7.462-1,7.462c1.866,9.653,4.727,36.941,6.364,53.376-3.746,1.231-7.492,2.313-11.237,3.608C544.6,331.481,542.946,298.283,542.946,298.283Z" transform="translate(6430.125 -2895.439)" fill="#f9b6a8" fill-rule="evenodd"/>
      <path id="Path_4160" data-name="Path 4160" d="M556.106,473.761c3.763-1.483,7.7-2.394,11.619-3.63-.094-.954-.194-1.962-.3-3.012-3.746,1.23-7.492,2.313-11.237,3.608C556.166,471.757,556.138,472.77,556.106,473.761Z" transform="translate(6417.986 -3010.899)" fill="#fffffe" fill-rule="evenodd"/>
      <path id="Path_4161" data-name="Path 4161" d="M608.42,506.464c-.757-.258-1.479-.483-2.14-.677-1.745,3.351-5.525,6.083-9.306,4.71-3.059-.872-4.2-3.658-4.173-6.716h-1.526s-1.183,6.172,3.581,8.457C600.091,514.749,606.136,510.746,608.42,506.464Z" transform="translate(6395.404 -3034.527)" fill="#fffffe" fill-rule="evenodd"/>
      <path id="Path_4162" data-name="Path 4162" d="M614.8,458.917l-7.353-4.986s-8.685,9.234-7.844,11.286l.841,2.052-1.083,2.823a2.433,2.433,0,0,1-2.272,1.56H595.8c-.026,3.058.866,6.206,3.924,7.078,3.781,1.373,7.81-1.722,9.556-5.073-2.212-.647-3.764-.946-3.764-.946l3.268-5.306s5.172-.853,4.766-1.972-3.394-.218-3.394-.218Z" transform="translate(6392.403 -3002.399)" fill="#f9b6a8" fill-rule="evenodd"/>
      <path id="Path_4163" data-name="Path 4163" d="M615.062,473.175s2.242-2.527,1.682-3.18-2.9,2.154-2.9,2.154Z" transform="translate(6380.772 -3012.689)" fill="#f07b3f" fill-rule="evenodd"/>
      <path id="Path_4164" data-name="Path 4164" d="M627.628,471.641a.51.51,0,1,0,.51.51A.51.51,0,0,0,627.628,471.641Z" transform="translate(6372.219 -3013.813)" fill="#131412" fill-rule="evenodd"/>
      <path id="Path_4165" data-name="Path 4165" d="M618.557,465.616a.51.51,0,1,0,.51.509A.51.51,0,0,0,618.557,465.616Z" transform="translate(6378.065 -3009.93)" fill="#131412" fill-rule="evenodd"/>
      <path id="Path_4166" data-name="Path 4166" d="M612.478,481.325A3.075,3.075,0,0,0,611,480.269a.187.187,0,1,1,.117-.354,3.448,3.448,0,0,1,1.662,1.185.187.187,0,1,1-.3.225Z" transform="translate(6382.692 -3019.14)" fill="#f07b3f" fill-rule="evenodd"/>
      <path id="Path_4167" data-name="Path 4167" d="M630.844,467.27a1.621,1.621,0,0,0-.966-.921A.186.186,0,1,1,630,466a2,2,0,0,1,1.193,1.135.187.187,0,0,1-.1.242.182.182,0,0,1-.069.013A.187.187,0,0,1,630.844,467.27Z" transform="translate(6370.521 -3010.169)" fill="#131412" fill-rule="evenodd"/>
      <path id="Path_4168" data-name="Path 4168" d="M621.434,460.494a1.4,1.4,0,0,0-1.117-.939.186.186,0,1,1,.049-.37,1.76,1.76,0,0,1,1.424,1.2.186.186,0,0,1-.122.234.191.191,0,0,1-.056.009A.187.187,0,0,1,621.434,460.494Z" transform="translate(6376.708 -3005.785)" fill="#131412" fill-rule="evenodd"/>
      <path id="Path_4169" data-name="Path 4169" d="M625.085,443.387c1.092-2.913,3.47-2.505,4.5-1.852s.934,3.078.934,3.078,4.671.933,3.55,4.663c2.242,3.168-3.176,7.309-3.176,7.309l-1.962.339-1.021-.745s2.515-5.086,3.73-6.069C631.638,450.111,623.721,447.027,625.085,443.387Z" transform="translate(6373.631 -2994.107)" fill="#f07b3f" fill-rule="evenodd"/>
      <path id="Path_4170" data-name="Path 4170" d="M634.962,487.2a.186.186,0,0,1,.149-.217l2.448-.459a.186.186,0,0,1,.069.366l-2.448.458a.189.189,0,0,1-.034,0A.187.187,0,0,1,634.962,487.2Z" transform="translate(6367.166 -3023.402)" fill="#f07b3f" fill-rule="evenodd"/>
      <path id="Path_4171" data-name="Path 4171" d="M609.379,492.538l-1.112-.544.209-.544Z" transform="translate(6384.369 -3026.58)" fill="#f07b3f" fill-rule="evenodd"/>
      <path id="Path_4172" data-name="Path 4172" d="M620.68,508.376l2.184-1.323-1.312-.292Z" transform="translate(6376.369 -3036.448)" fill="#f07b3f" fill-rule="evenodd"/>
      <path id="Path_4173" data-name="Path 4173" d="M560.893,304.766l-3.082,1.4-.155-.34,3.083-1.4Z" transform="translate(6416.988 -2906.043)" fill="#ff516c" fill-rule="evenodd"/>
      <path id="Path_4174" data-name="Path 4174" d="M649.237,571.079l4.6,14.38-.361-7.242Z" transform="translate(6357.963 -3077.901)" fill="#f07b3f" fill-rule="evenodd"/>
      <path id="Path_4175" data-name="Path 4175" d="M581,742.013l9.035,3.635.277-2.515Z" transform="translate(6401.943 -3188.068)" fill="#1c202e" fill-rule="evenodd"/>
      <path id="Path_4176" data-name="Path 4176" d="M673.336,821.709l1.805-6.6-2.428,1.248Z" transform="translate(6342.833 -3235.181)" fill="#1c202e" fill-rule="evenodd"/>
      <g id="Group_2070" data-name="Group 2070" transform="translate(7047.451 -2457.993)">
        <path id="Path_4185" data-name="Path 4185" d="M852.926,950.552h24.894l3.708-30.407H848.954Z" transform="translate(-839.89 -854.834)" fill="#393e46" fill-rule="evenodd"/>
        <path id="Path_4186" data-name="Path 4186" d="M880.98,924.639l.548-4.495H848.954l.587,4.495Z" transform="translate(-839.89 -854.834)" fill="#1c202e" fill-rule="evenodd"/>
        <path id="Path_4187" data-name="Path 4187" d="M835.958,910.969h38.048l2.472-7.932H833.309Z" transform="translate(-829.807 -843.808)" fill="#393e46" fill-rule="evenodd"/>
        <path id="Path_4188" data-name="Path 4188" d="M829.285,864.606c1.589,1.322,6.621,11.9,6.621,11.9H842s-10.858-24.855-18.538-9.783C823.459,866.721,827.7,863.284,829.285,864.606Z" transform="translate(-823.459 -817.276)" fill="#008b44" fill-rule="evenodd"/>
        <path id="Path_4189" data-name="Path 4189" d="M928.4,856.923a40.257,40.257,0,0,1-15.36,16.394h-6.885S917.274,859.038,928.4,856.923Z" transform="translate(-876.754 -814.088)" fill="#008b44" fill-rule="evenodd"/>
        <path id="Path_4190" data-name="Path 4190" d="M857.753,825.861h4.491s-5.39-26.706-12.351-42.571C849.893,783.29,846.973,810.26,857.753,825.861Z" transform="translate(-840.263 -766.632)" fill="#00a650" fill-rule="evenodd"/>
        <path id="Path_4191" data-name="Path 4191" d="M877.4,795.66h5.164s5.429-31.2-8.607-59.228C873.961,736.432,872.107,778.473,877.4,795.66Z" transform="translate(-855.805 -736.432)" fill="#008b44" fill-rule="evenodd"/>
        <path id="Path_4192" data-name="Path 4192" d="M924.033,741.638c-13.779,13.875-3.972,33.316-24.365,57.378h-3.576C902.381,780.271,901.787,752.215,924.033,741.638Z" transform="translate(-870.272 -739.787)" fill="#00a650" fill-rule="evenodd"/>
      </g>
    </g>
    <g id="Group_2079" data-name="Group 2079" transform="translate(-462.805 -52.873)">
      <path id="Path_4203" data-name="Path 4203" d="M628.6,127.072l12.168,14.306,18.253-21.541-12.333-14.964Z" transform="translate(-51.048)" fill="#f07b3f"/>
      <path id="Path_4205" data-name="Path 4205" d="M753.007,136.964l-14.471-11.84c.822-1.973,4.769-1.316,4.769-1.316l11.327,11.484a6.2,6.2,0,0,1,1.006,1.343h0Z" transform="translate(-148.163 -16.634)" fill="#f2f2f2"/>
      <path id="Path_4206" data-name="Path 4206" d="M605.5,133.2l-16.444-12.826L570.8,148,587.989,159.6a3.843,3.843,0,0,0,3.289-.493L608.05,133.45Z" transform="translate(0 -13.695)" fill="#f07b3f"/>
      <rect id="Rectangle_313" data-name="Rectangle 313" width="0.266" height="12.96" transform="translate(590.953 110.902) rotate(-54.3)" fill="#393e46"/>
      <rect id="Rectangle_314" data-name="Rectangle 314" width="25.039" height="0.267" transform="matrix(0.552, -0.834, 0.834, 0.552, 587.96, 141.963)" fill="#393e46"/>
      <rect id="Rectangle_315" data-name="Rectangle 315" width="0.267" height="13.879" transform="translate(575.167 134.578) rotate(-53.656)" fill="#393e46"/>
      <rect id="Rectangle_316" data-name="Rectangle 316" width="25.043" height="0.266" transform="translate(574.807 131.6) rotate(-55.162)" fill="#393e46"/>
      <rect id="Rectangle_317" data-name="Rectangle 317" width="0.164" height="17.661" transform="translate(593.421 107.133) rotate(-47.455)" fill="#393e46"/>
      <rect id="Rectangle_318" data-name="Rectangle 318" width="0.165" height="18.14" transform="translate(592.339 107.238) rotate(-48.562)" fill="#393e46"/>
      <rect id="Rectangle_319" data-name="Rectangle 319" width="0.165" height="18.378" transform="translate(591.492 107.48) rotate(-50.187)" fill="#393e46"/>
    </g>
  </g>
</svg>
