<?xml version="1.0" encoding="UTF-8"?>
<svg viewBox="0 0 159.43 246.03" xmlns="http://www.w3.org/2000/svg">
<g transform="translate(-8891 200)" fill-rule="evenodd" data-name="Group 2090">
<g transform="translate(8891 -103.18)">
<path transform="translate(-461.22 -654.44)" d="m472.07 736.72-9.585-35.9a36.866 36.866 0 0 1 67.413-28.173c0.5 0.854 1.125 1.918 7.541 22.443 3.078 9.846 6.041 19.556 6.07 19.653l-11.3 3.446c-5.28-17.308-11.429-36.906-12.623-39.771a25.055 25.055 0 0 0-45.688 19.359l9.585 35.9-11.412 3.047" fill="#393e46"/>
<path transform="translate(-461.66 -771.55)" d="m475.71 840.09-13.78 6.693s12.616 89.256 73.238 66.582l-59.459-73.275" fill="#393e46" data-name="Path 4245"/>
<path transform="translate(-485.2 -741.28)" d="m499.25 809.83 75.2-17.717s48.82 65.355-6.693 88.191-68.5-70.474-68.5-70.474" fill="#58616e" data-name="Path 4246"/>
<path transform="translate(-505.49 -760.82)" d="M533.493,837.725c.959,5.674,7.23,38.465,25.494,49.017,7.135,4.122,15.347,4.373,24.408.748,9.937-3.976,16.1-10.105,18.331-18.218,4.935-17.983-10.784-40.586-13.358-44.122Zm37.757,54.162a25.953,25.953,0,0,1-13.188-3.548c-10.857-6.274-17.5-19.888-21.153-30.2a123.039,123.039,0,0,1-5.378-20.986l-.121-.841,57.711-13.226.361.47a93.421,93.421,0,0,1,9.108,15.313c3.859,8.2,7.846,20.212,4.917,30.89-2.386,8.7-8.922,15.246-19.426,19.448a34.553,34.553,0,0,1-12.832,2.684Z" fill="#fffffe" data-name="Path 4247"/>
<path transform="translate(-551.42 -787.34)" d="m609.16 865.63c9.341-3.309 16.33 10.762 11.693 19.7l7.993 13.021-15.867 4.78v-16.12c-7.766-3.364-13.16-18.072-3.819-21.381z" fill="#2BA952" data-name="Path 4248"/>
</g>
<g transform="translate(8951.4 -200)">
<path transform="translate(-691.26 -413.68)" d="M733.611,429.969a2.551,2.551,0,0,0-3.417-3.45q.255.625.5,1.27a1.2,1.2,0,1,1,.8,2.193q.22.645.426,1.3a2.559,2.559,0,0,0,.662-.252l2.2,2.2-1.43,1.43,1.044,1.044,1.43-1.43.556.556-1.3,1.3,1.044,1.044,2.285-2.4-4.805-4.805" fill="#f07b3f" data-name="Path 4249"/>
<path transform="translate(-667.79 -413.65)" d="M697.466,429.969a1.2,1.2,0,0,1-1.16-.752,1.219,1.219,0,0,1,.717-1.567,1.243,1.243,0,0,1,1.167.138,6.344,6.344,0,0,1,.8-1.127,2.65,2.65,0,0,0-2.462-.272,2.594,2.594,0,0,0-1.527,3.334,2.479,2.479,0,0,0,.7.984l-2.714,5.908L696.057,438l.465-1-.789-.36.276-.736.57.277.624-1.364-1.444-.632,1.317-2.877a2.661,2.661,0,0,0,.377.017,6.144,6.144,0,0,1,.013-1.36" fill="#fff03d" data-name="Path 4250"/>
<path transform="translate(-681.62 -417.32)" d="M718.421,436.171a2.551,2.551,0,0,0-1.931-4.153,8.794,8.794,0,0,1-.049,1.356,1.2,1.2,0,1,1-.548,2.266,9.51,9.51,0,0,1-.568,1.227,2.561,2.561,0,0,0,.673.219l.511,3.96-.88.1.158,1.468.88-.1.084.782-1.826.2.157,1.468,3.286-.437-.9-7.618a2.542,2.542,0,0,0,.957-.733" fill="#393e46" data-name="Path 4251"/>
<path transform="translate(-671.32 -397.26)" d="m706.13 401.69a6.061 6.061 0 1 0 6.062 6.062 6.068 6.068 0 0 0-6.062-6.062m0 13.6a7.538 7.538 0 1 1 7.539-7.538 7.547 7.547 0 0 1-7.539 7.538" fill="#ccc" data-name="Path 4252"/>
<path transform="translate(-661.34 -392.21)" d="m682.76 394.78 8.848-2.565 2.161 3.692h1.646l0.515 1.723-10.391 1.723-2.778-4.574" fill="#f9b6a8" data-name="Path 4253"/>
<path transform="translate(-674.69 -398.21)" d="m703.94 402.08h3.189v-0.369h-3.189z" fill="#ff516c" data-name="Path 4254"/>
<path transform="translate(-705.18 -780.98)" d="m760.38 1009.8 2.215 17.169-10.338-3.323 4.246-2.215-2.03-12.923 5.907 1.292" fill="#131412" data-name="Path 4255"/>
<path transform="translate(-758.79 -780.98)" d="m845.38 1008.5 1.846 16.984-9.969-2.769 4.984-2.585-2.215-11.631h5.354" fill="#131412" data-name="Path 4256"/>
<path transform="translate(-691.86 -596.16)" d="M737.158,726.378l-5.787,49.512a33.042,33.042,0,0,0,.35,9.966l7.776,41.2h8.861l-.749-46.522,14.779-42.091v38.844a33.065,33.065,0,0,0,.632,6.432l8.6,43.337h9.6L779,783.854s13.662-44.307,8.123-68.306l-49.968,10.83" fill="#2BA952" data-name="Path 4257"/>
<path transform="translate(-671.89 -459.53)" d="m717.56 498.94s-19.63 32.9-17.969 45.085 25.291-2.585 25.291-2.585l-7.322-42.5" fill="#393e46" data-name="Path 4258"/>
<path transform="translate(-721.26 -412.19)" d="M784.158,423.881h-1.845l-4.553,10.707,1.354.861-.768,4.384a1.4,1.4,0,0,0,1.279,1.633l2.872.2,1.415,7.169h11.569l-4.554-11.661.121-13.292h-6.892" fill="#f9b6a8" data-name="Path 4259"/>
<path transform="translate(-710.92 -436.37)" d="m771.97 462.21-6.769 2.092-3.838 5.107 3.835 1.787 4.061-3.569-0.984-2.339 3.692-1.969v-1.108" fill="#f7a8a2" data-name="Path 4260"/>
<path transform="translate(-702.76 -448.67)" d="m753.2 481.71-4.778 6.36 7.692 0.84 2.524-5.415-5.437-1.784" fill="#1c202e" data-name="Path 4261"/>
<path transform="translate(-624.74 -396.6)" d="m646.16 399.16 3.323 4.574s-8.492 17.65-10.707 35.692c0 0 45.784-8.615 55.137-7.877s33.969 1.723 29.292 90.09l-53.168 5.169-1.231-72.614s-44.8 10.83-44.061-10.585 21.415-44.45 21.415-44.45" fill="#393e46" data-name="Path 4262"/>
<path transform="translate(-640.1 -459.53)" d="m654.14 502.36-5.046 0.738 5.544-4.163-0.5 3.424" fill="#1c202e" data-name="Path 4263"/>
<path transform="translate(-724.57 -402.68)" d="M789.953,425.568h-1.6s.491-9.354,2.091-9.969c0,0-6.849.7-7.384-2.954a3.12,3.12,0,0,1,5.694-2.369s9.321.031,7.967,4.708a50.162,50.162,0,0,1-2.123,13.538l-2.2-1.22-2.447-1.734" fill="#f07b3f" data-name="Path 4264"/>
<path transform="translate(-735.18 -428.37)" d="M799.824,451.579a5.581,5.581,0,0,1,1.544-1.77,1.492,1.492,0,0,1,1.992.235,2.417,2.417,0,0,1-.12,2.663,4.985,4.985,0,0,1-2.039,1.512" fill="#f9b6a8" data-name="Path 4265"/>
<path transform="translate(-736.39 -430.69)" d="M801.936,455.179a.185.185,0,0,1-.113-.331l2.092-1.6a.185.185,0,1,1,.225.293l-2.092,1.6a.184.184,0,0,1-.112.038" fill="#ff516c" data-name="Path 4266"/>
<path transform="translate(-727.57 -421.76)" d="M789.236,439.786a.738.738,0,1,0-.738.738.738.738,0,0,0,.738-.738" fill="#131412" data-name="Path 4267"/>
<path transform="translate(-725.83 -420.49)" d="M789.08,437.6h-3.795a.277.277,0,0,1,0-.554h3.795a.277.277,0,0,1,0,.554" fill="#131412" data-name="Path 4268"/>
<path transform="translate(-702.13 -606.21)" d="m747.43 736.42h51.29l-0.369-4.951-50.921 4.951" fill="#e6bd4e" data-name="Path 4269"/>
<path transform="translate(-745.23 -635.27)" d="m815.76 777.55h12.677l-12.677 4.431v-4.431" fill="#e6bd4e" data-name="Path 4270"/>
<path transform="translate(-698.44 -487.67)" d="m741.58 545.48 9.851-1.934-9.415 6.655-0.436-4.721" fill="#1c202e" data-name="Path 4271"/>
<path transform="translate(-729.35 -442.57)" d="m790.59 472.05h2.523l-2.353 0.861" fill="#ff516c" data-name="Path 4272"/>
<path transform="translate(-688.86 -414.15)" d="M728.943,430.467a1.2,1.2,0,0,1-.646-2.208,1.037,1.037,0,0,0-.5-1.27,2.549,2.549,0,0,0,1.727,4.763c.241-.436.27-.869-.426-1.3a1.2,1.2,0,0,1-.152.015" fill="#1a72f1" data-name="Path 4273"/>
<path transform="translate(-674.88 -414.43)" d="M706.087,427.44c-.527.045-.8.423-.8,1.127a1.165,1.165,0,0,1,.42.532,1.218,1.218,0,0,1-.717,1.567,1.257,1.257,0,0,1-.427.082c-.52.478-.33.918-.013,1.361a2.684,2.684,0,0,0,.931-.181A2.594,2.594,0,0,0,707,428.593a2.487,2.487,0,0,0-.917-1.153" fill="#fff03d" data-name="Path 4274"/>
<path transform="translate(-679.84 -417.32)" d="M713.893,435.5a1.2,1.2,0,0,1,.762-2.129c.324-.558.371-1.022.049-1.356a2.548,2.548,0,0,0-1.165,4.848,1.131,1.131,0,0,0,.568-1.227,1.189,1.189,0,0,1-.213-.137" fill="#19243c" data-name="Path 4275"/>
</g>
</g>
</svg>
