<svg xmlns="http://www.w3.org/2000/svg" width="19.441" height="23.998" viewBox="0 0 19.441 23.998">
  <path id="Bell" d="M503.86,948a4.978,4.978,0,0,1-2.5-.668,1,1,0,1,1,1-1.73,3,3,0,0,0,4.43-1.979A2,2,0,0,1,508.752,942h2.827l-.689-2.758a.983.983,0,0,1-.03-.242v-5.726a7.158,7.158,0,0,0-6.532-7.258A7,7,0,0,0,496.86,933v6a.983.983,0,0,1-.03.242L496.141,942h7.719a1,1,0,0,1,0,2h-7.719a2,2,0,0,1-1.941-2.484l.66-2.639V933a9,9,0,0,1,9.6-8.98,9.162,9.162,0,0,1,8.4,9.254v5.6l.66,2.639A2,2,0,0,1,511.579,944h-2.827A5.016,5.016,0,0,1,503.86,948Z" transform="translate(-494.14 -924.002)"  />
</svg>
