<?xml version="1.0" encoding="UTF-8"?>
<svg viewBox="0 0 37 38.7" xmlns="http://www.w3.org/2000/svg">
<path transform="translate(-206.83 -2846.7)" d="m225.33 2885.4a3.782 3.782 0 0 1-2.109-0.642 18.619 18.619 0 0 0-13.959-2.764 2.018 2.018 0 0 1-2.432-1.964v-31.309a2.019 2.019 0 0 1 2.018-2.018h5.7a21.516 21.516 0 0 1 5.086 0.61 2.019 2.019 0 1 1-1.084 3.887 17.7 17.7 0 0 0-4.5-0.46h-3.176v26.954a22.573 22.573 0 0 1 14.464 3.622 22.573 22.573 0 0 1 14.459-3.622v-26.845a18.566 18.566 0 0 0-12.355 3.009l-0.091 19.582a2.018 2.018 0 1 1-4.036 0v-20.536a2.033 2.033 0 0 1 0.787-1.622 22.661 22.661 0 0 1 18.157-4.137 2 2 0 0 1 1.574 1.978v30.907a2.018 2.018 0 0 1-2.436 1.964 18.62 18.62 0 0 0-13.959 2.766 3.782 3.782 0 0 1-2.108 0.64z" fill="#2BA952"/>
</svg>
