<svg xmlns="http://www.w3.org/2000/svg" xmlns:xlink="http://www.w3.org/1999/xlink" width="49" height="49" viewBox="0 0 49 49">
  <defs>
    <filter id="Ellipse_93" x="0" y="0" width="49" height="49" filterUnits="userSpaceOnUse">
      <feOffset dy="3" input="SourceAlpha"/>
      <feGaussianBlur stdDeviation="3" result="blur"/>
      <feFlood flood-color="#777" flood-opacity="0.161"/>
      <feComposite operator="in" in2="blur"/>
      <feComposite in="SourceGraphic"/>
    </filter>
  </defs>
  <g id="Group_2102" data-name="Group 2102" transform="translate(-319 -330)">
    <g id="Group_384" data-name="Group 384" transform="translate(0 -12)">
      <g transform="matrix(1, 0, 0, 1, 319, 342)" filter="url(#Ellipse_93)">
        <g id="Ellipse_93-2" data-name="Ellipse 93" transform="translate(9 6)" fill="#fdf1d0" stroke="#fff" stroke-width="1">
          <circle cx="15.5" cy="15.5" r="15.5" stroke="none"/>
          <circle cx="15.5" cy="15.5" r="15" fill="none"/>
        </g>
      </g>
    </g>
    <g id="Group_2101" data-name="Group 2101" transform="translate(-357.773 255.877)">
      <path id="Path_3936" data-name="Path 3936" d="M732.6,139.5c2.664-1.754,7.761-8.213,3.4-12.412a7.36,7.36,0,0,0-.027-.994C742.117,130.635,734.97,138.631,732.6,139.5Z" transform="translate(-30.189 -33.505)" fill="#3f75f0"/>
      <path id="Path_3937" data-name="Path 3937" d="M732.131,143.215a1.2,1.2,0,0,1-.125.04c3.025-2.381,3.508-9.756,3.529-12.452C739.893,135,734.8,141.46,732.131,143.215Z" transform="translate(-29.724 -37.221)" fill="#3258d8"/>
      <path id="Path_3938" data-name="Path 3938" d="M729.364,140.935a1.226,1.226,0,0,0,.125-.04,3.121,3.121,0,0,1-.832.416c3.675-2.894,3.6-13.157,3.5-13.448a7.276,7.276,0,0,1,.734.621C732.872,131.179,732.389,138.554,729.364,140.935Z" transform="translate(-27.081 -34.902)" fill="#3f75f0"/>
      <path id="Path_3939" data-name="Path 3939" d="M699.21,139.019c-2.852-2.052-7.916-8.832-2.449-12.876a7.334,7.334,0,0,0-.032.965C692.586,130.911,696.451,136.661,699.21,139.019Z" transform="translate(0 -33.545)" fill="#3f75f0"/>
      <path id="Path_3940" data-name="Path 3940" d="M702.441,143.194a3.635,3.635,0,0,1-1.053-.57c-2.759-2.358-6.624-8.108-2.48-11.911C698.926,133.383,699.406,140.8,702.441,143.194Z" transform="translate(-2.178 -37.15)" fill="#3258d8"/>
      <path id="Path_3941" data-name="Path 3941" d="M708.177,140.731a3.634,3.634,0,0,0,1.053.57c-3.035-2.389-3.515-9.811-3.534-12.481a7.534,7.534,0,0,1,.614-.507c-.1.289-.173,10.552,3.5,13.446A4.963,4.963,0,0,1,708.177,140.731Z" transform="translate(-8.967 -35.257)" fill="#3f75f0"/>
      <path id="Path_3942" data-name="Path 3942" d="M711.9,92.392v10.36c0,3.289-5.147,8.712-5.618,9.2a.045.045,0,0,1-.068,0c-.443-.5-5.185-5.914-5.185-9.2V92.392a7.039,7.039,0,0,1,.068-.973,6.729,6.729,0,0,1,.724-2.271c2.3.585,4.68-.576,4.68.369,0-.935,2.335.192,4.614-.355a6.859,6.859,0,0,1,.72,2.261c.017.129.032.26.04.393Q711.9,92.1,711.9,92.392Z" transform="translate(-5.283 -4.344)" fill="#2ba952"/>
      <path id="Path_3943" data-name="Path 3943" d="M717.371,119.284v6.559c0,1.641-2.023,4.119-3.027,5.249a.711.711,0,0,1-1.081-.024c-.933-1.14-2.774-3.6-2.774-5.225v-6.559a4.443,4.443,0,0,1,.043-.616,4.258,4.258,0,0,1,.458-1.438c1.456.37,2.963-.365,2.963.234,0-.592,1.478.122,2.921-.224a4.34,4.34,0,0,1,.456,1.431c.011.081.02.164.025.249C717.366,119.039,717.371,119.161,717.371,119.284Z" transform="translate(-12.748 -26.504)" fill="#33d164"/>
      <path id="Path_3944" data-name="Path 3944" d="M732.368,97.23c-1.117.027-2.71-1.258-4.152,1.3a1.824,1.824,0,0,0-.236.241h-.973c0-2.242,2.36-2.17,4.143-2.387a2.3,2.3,0,0,0,1.009-.388,6.5,6.5,0,0,1,.169.844C732.345,96.966,732.36,97.1,732.368,97.23Z" transform="translate(-25.779 -9.759)" fill="#393e46" opacity="0.15"/>
      <path id="Path_3945" data-name="Path 3945" d="M701.185,96.935c1.117.027,2.71-1.258,4.152,1.3a1.82,1.82,0,0,1,.236.241h.973c0-2.242-2.36-2.17-4.143-2.387a2.3,2.3,0,0,1-1.009-.388,6.5,6.5,0,0,0-.169.844C701.208,96.671,701.193,96.8,701.185,96.935Z" transform="translate(-5.408 -9.526)" fill="#393e46" opacity="0.15"/>
      <path id="Path_3946" data-name="Path 3946" d="M708.491,83.623c-.006.16-.015.315-.025.46a4.286,4.286,0,0,1-2.071,1.14c-2.28.547-4.614-.58-4.614.355,0-.946-2.379.215-4.68-.369a4.311,4.311,0,0,1-1.8-.933,5.34,5.34,0,0,1-.3-.652,4.307,4.307,0,0,0,2.062,1.18c2.3.585,4.68-.576,4.68.369,0-.935,2.335.192,4.614-.355A4.3,4.3,0,0,0,708.491,83.623Z" transform="translate(-0.534)" fill="#3258d8"/>
      <path id="Path_3947" data-name="Path 3947" d="M709.57,85.8c-.156,2.434-.673,2.98-1.383,3-1.089.019-2.63-1.216-4.034,1.182a8.577,8.577,0,0,0-.578,1.235,1.554,1.554,0,0,1-.409.591,1.636,1.636,0,0,0-.363.8,1.946,1.946,0,0,0-.342-.832,1.778,1.778,0,0,1-.327-.553c-.065-.171-.131-.331-.2-.481a7.117,7.117,0,0,0-.319-.646,1.945,1.945,0,0,1,.234.241h.963v-.017c-.013-2.225-2.339-2.153-4.1-2.37A3.392,3.392,0,0,1,696.407,86a4.313,4.313,0,0,0,1.8.933c2.3.585,4.68-.576,4.68.369,0-.935,2.335.192,4.614-.355A4.287,4.287,0,0,0,709.57,85.8Z" transform="translate(-1.638 -1.72)" fill="#3f75f0"/>
      <path id="Path_3948" data-name="Path 3948" d="M727.052,88.763h.973a1.95,1.95,0,0,1,.237-.241c1.466-2.6,3.093-1.222,4.213-1.3.724-.051,1.234-.713,1.353-3.451,0,0-.845,2.385-2.632,2.6S727.052,86.521,727.052,88.763Z" transform="translate(-25.815 -0.117)" fill="#2ba952"/>
      <path id="Path_3949" data-name="Path 3949" d="M732.628,112.732a2.166,2.166,0,1,1-4.331,0,2.216,2.216,0,0,1,.036-.395v.015c-.006.068-.008.137-.008.2a2.131,2.131,0,0,0,4.262.017,2.3,2.3,0,0,0-.042-.437A2.154,2.154,0,0,1,732.628,112.732Z" transform="translate(-26.797 -22.492)" fill="#393e46" opacity="0.11"/>
      <path id="Path_3950" data-name="Path 3950" d="M709.048,112.584a2.166,2.166,0,0,1-4.331,0,2.216,2.216,0,0,1,.036-.395v.015c-.006.068-.008.137-.008.2a2.131,2.131,0,0,0,4.262.017,2.307,2.307,0,0,0-.042-.437A2.161,2.161,0,0,1,709.048,112.584Z" transform="translate(-8.194 -22.375)" fill="#393e46" opacity="0.11"/>
      <rect id="Rectangle_154" data-name="Rectangle 154" width="1.404" height="0.78" rx="0.39" transform="translate(705.211 89.613)" fill="#393e46"/>
      <rect id="Rectangle_155" data-name="Rectangle 155" width="1.404" height="0.78" rx="0.39" transform="translate(695.725 89.613)" fill="#393e46"/>
      <g id="Group_276" data-name="Group 276" transform="translate(700.378 89.276)">
        <path id="Path_3951" data-name="Path 3951" d="M723.811,110.406l-.83.846.83,1.689v-2.535Z" transform="translate(-722.981 -110.406)" fill="#ff5b61"/>
        <path id="Path_3952" data-name="Path 3952" d="M726.914,110.406l.83.846-.83,1.689v-2.535Z" transform="translate(-726.084 -110.406)" fill="#ec4b53"/>
      </g>
      <path id="Path_3953" data-name="Path 3953" d="M701.955,88.665h-.963a1.977,1.977,0,0,0-.234-.241c-1.45-2.6-3.059-1.222-4.167-1.3-.716-.051-1.22-.713-1.338-3.451,0,0,.836,2.385,2.6,2.6S701.955,86.423,701.955,88.665Z" transform="translate(-0.728 -0.039)" fill="#2ba952"/>
      <path id="Path_3954" data-name="Path 3954" d="M726.757,107.288v-.015" transform="translate(-25.582 -18.658)" fill="none" stroke="#393e46" stroke-miterlimit="10" stroke-width="1"/>
      <g id="Group_218" data-name="Group 218" transform="translate(696.561 87.935)">
        <path id="Path_3955" data-name="Path 3955" d="M714.125,106.194a2.131,2.131,0,0,1-4.262.008v-.025c0-.063,0-.133.008-.2v-.015a.058.058,0,0,0,0-.019.357.357,0,0,0-.359-.357h-.042a.36.36,0,0,0-.325.393c.006.063.011.131.011.192v.015a2.112,2.112,0,0,1-2.119,2.1,2.137,2.137,0,0,1-2.142-2.069v-.065a2.117,2.117,0,0,1,2.13-2.1,1.84,1.84,0,0,1,1.288.437,1.954,1.954,0,0,1,.234.241h1.921a1.9,1.9,0,0,1,.382-.355,1.858,1.858,0,0,1,1.142-.323H712a2.134,2.134,0,0,1,2.081,1.7A2.3,2.3,0,0,1,714.125,106.194Z" transform="translate(-704.897 -104.052)" fill="#393e46"/>
        <path id="Path_3931" data-name="Path 3931" d="M710.854,108.352a1.51,1.51,0,1,1-1.51-1.51h0A1.51,1.51,0,0,1,710.854,108.352Z" transform="translate(-707.213 -106.253)" fill="#2ba952"/>
        <path id="Path_3932" data-name="Path 3932" d="M734.371,108.352a1.51,1.51,0,1,1-1.51-1.51,1.51,1.51,0,0,1,1.51,1.51Z" transform="translate(-725.766 -106.253)" fill="#2ba952"/>
      </g>
      <g id="Group_277" data-name="Group 277" transform="translate(702.625 88.907)">
        <circle id="Ellipse_44" data-name="Ellipse 44" cx="0.991" cy="0.991" r="0.991" fill="#3258d8"/>
        <circle id="Ellipse_45" data-name="Ellipse 45" cx="0.887" cy="0.887" r="0.887" transform="translate(0.104 0.104)" fill="#3f75f0"/>
        <circle id="Ellipse_46" data-name="Ellipse 46" cx="0.46" cy="0.46" r="0.46" transform="translate(0.53 0.522)" fill="#393e46"/>
        <circle id="Ellipse_47" data-name="Ellipse 47" cx="0.26" cy="0.26" r="0.26" transform="translate(0.418 0.375)" fill="#fcfcfc"/>
      </g>
      <g id="Group_278" data-name="Group 278" transform="translate(697.674 88.907)">
        <circle id="Ellipse_48" data-name="Ellipse 48" cx="0.991" cy="0.991" r="0.991" transform="translate(0)" fill="#3258d8"/>
        <circle id="Ellipse_49" data-name="Ellipse 49" cx="0.887" cy="0.887" r="0.887" transform="translate(0.104 0.104)" fill="#3f75f0"/>
        <circle id="Ellipse_50" data-name="Ellipse 50" cx="0.46" cy="0.46" r="0.46" transform="translate(0.53 0.522)" fill="#393e46"/>
        <circle id="Ellipse_51" data-name="Ellipse 51" cx="0.26" cy="0.26" r="0.26" transform="translate(0.418 0.375)" fill="#fcfcfc"/>
      </g>
      <rect id="Rectangle_156" data-name="Rectangle 156" width="0.374" height="2.091" rx="0.187" transform="translate(698.408 93.248)" fill="#393e46" opacity="0.11"/>
      <rect id="Rectangle_157" data-name="Rectangle 157" width="0.374" height="2.091" rx="0.187" transform="translate(699.422 94.106)" fill="#393e46" opacity="0.11"/>
      <rect id="Rectangle_158" data-name="Rectangle 158" width="0.374" height="2.091" rx="0.187" transform="translate(699.459 91.625)" fill="#393e46" opacity="0.11"/>
      <rect id="Rectangle_159" data-name="Rectangle 159" width="0.374" height="2.091" rx="0.187" transform="translate(700.53 93.31)" fill="#393e46" opacity="0.11"/>
      <rect id="Rectangle_160" data-name="Rectangle 160" width="0.374" height="2.091" rx="0.187" transform="translate(701.841 92.021)" fill="#393e46" opacity="0.11"/>
      <rect id="Rectangle_161" data-name="Rectangle 161" width="0.374" height="2.091" rx="0.187" transform="translate(701.794 94.449)" fill="#393e46" opacity="0.11"/>
      <rect id="Rectangle_162" data-name="Rectangle 162" width="0.374" height="2.091" rx="0.187" transform="translate(703.042 93.342)" fill="#393e46" opacity="0.11"/>
      <rect id="Rectangle_163" data-name="Rectangle 163" width="0.374" height="2.091" rx="0.187" transform="translate(698.486 96.088)" fill="#393e46" opacity="0.11"/>
      <rect id="Rectangle_164" data-name="Rectangle 164" width="0.374" height="2.091" rx="0.187" transform="translate(699.5 96.946)" fill="#393e46" opacity="0.11"/>
      <rect id="Rectangle_165" data-name="Rectangle 165" width="0.374" height="2.091" rx="0.187" transform="translate(700.608 96.15)" fill="#393e46" opacity="0.11"/>
      <rect id="Rectangle_166" data-name="Rectangle 166" width="0.374" height="2.091" rx="0.187" transform="translate(701.872 97.289)" fill="#393e46" opacity="0.11"/>
      <rect id="Rectangle_167" data-name="Rectangle 167" width="0.374" height="2.091" rx="0.187" transform="translate(703.12 96.181)" fill="#393e46" opacity="0.11"/>
      <rect id="Rectangle_168" data-name="Rectangle 168" width="0.374" height="2.091" rx="0.187" transform="translate(698.689 99.239)" fill="#393e46" opacity="0.11"/>
      <rect id="Rectangle_169" data-name="Rectangle 169" width="0.374" height="2.091" rx="0.187" transform="translate(699.703 100.098)" fill="#393e46" opacity="0.11"/>
      <rect id="Rectangle_170" data-name="Rectangle 170" width="0.374" height="2.091" rx="0.187" transform="translate(700.811 99.302)" fill="#393e46" opacity="0.11"/>
      <rect id="Rectangle_171" data-name="Rectangle 171" width="0.374" height="2.091" rx="0.187" transform="translate(702.075 100.441)" fill="#393e46" opacity="0.11"/>
      <rect id="Rectangle_172" data-name="Rectangle 172" width="0.374" height="2.091" rx="0.187" transform="translate(700.889 102.063)" fill="#393e46" opacity="0.11"/>
      <rect id="Rectangle_173" data-name="Rectangle 173" width="0.374" height="2.091" rx="0.187" transform="translate(703.323 99.333)" fill="#393e46" opacity="0.11"/>
    </g>
  </g>
</svg>
