<?xml version="1.0" encoding="UTF-8"?>
<svg viewBox="0 0 20.163 17.643" width='20.16' height='17.64' xmlns="http://www.w3.org/2000/svg">
<path transform="translate(-588 -447)" d="M592.2,464.643a.84.84,0,0,1-.594-1.434l2.868-2.868a2.5,2.5,0,0,1,1.783-.738h9.385a.841.841,0,0,0,.84-.84V449.52a.841.841,0,0,0-.84-.84H590.52a.842.842,0,0,0-.84.84v9.241a.842.842,0,0,0,.84.84h.84a.84.84,0,1,1,0,1.68h-.84a2.523,2.523,0,0,1-2.52-2.52V449.52a2.523,2.523,0,0,1,2.52-2.52h15.122a2.523,2.523,0,0,1,2.52,2.52v9.241a2.523,2.523,0,0,1-2.52,2.52h-9.385a.837.837,0,0,0-.595.246l-2.868,2.868A.838.838,0,0,1,592.2,464.643Zm10.922-12.688a.84.84,0,0,0-.84-.84h-9.241a.84.84,0,1,0,0,1.68h9.241A.84.84,0,0,0,603.122,451.955Zm-3.36,3.36a.84.84,0,0,0-.84-.84h-5.881a.84.84,0,1,0,0,1.68h5.881A.84.84,0,0,0,599.762,455.316Z"  />
</svg>
