<svg width="25" height="23" viewBox="0 0 25 23"   xmlns="http://www.w3.org/2000/svg">
<path d="M12.78 22.433C12.4896 22.433 12.2026 22.3698 11.9391 22.2477C11.6756 22.1256 11.4418 21.9475 11.254 21.726L1.469 10.162C1.20372 9.84871 1.04126 9.4614 1.00369 9.05261C0.966125 8.64383 1.05527 8.23346 1.259 7.87708L4.62399 1.98987C4.79893 1.68361 5.05176 1.4291 5.35681 1.25208C5.66187 1.07505 6.0083 0.981993 6.36099 0.982056H18.78C19.0452 0.982056 19.2996 1.08724 19.4871 1.27478C19.6746 1.46232 19.78 1.71684 19.78 1.98206C19.78 2.24727 19.6746 2.50155 19.4871 2.68909C19.2996 2.87662 19.0452 2.98206 18.78 2.98206H6.36099L2.995 8.87097L12.78 20.434L22.53 8.91101L21.245 6.98206H9.315L8.03201 8.90588L13.539 15.3309C13.6303 15.4297 13.7007 15.5459 13.746 15.6725C13.7913 15.7991 13.8106 15.9337 13.8028 16.068C13.795 16.2023 13.7601 16.3335 13.7003 16.454C13.6406 16.5745 13.5571 16.6817 13.455 16.7692C13.3528 16.8566 13.234 16.9225 13.1058 16.963C12.9776 17.0035 12.8425 17.0179 12.7086 17.005C12.5747 16.9921 12.4448 16.9523 12.3267 16.8881C12.2085 16.8238 12.1046 16.7364 12.021 16.631L6.51401 10.2059C6.23108 9.87446 6.06379 9.46002 6.03745 9.02502C6.0111 8.59002 6.12715 8.15823 6.36801 7.79504L7.651 5.87097C7.8337 5.59714 8.08116 5.37266 8.37143 5.21741C8.6617 5.06215 8.98582 4.98103 9.315 4.98108H21.245C21.5742 4.98103 21.8983 5.06215 22.1886 5.21741C22.4788 5.37266 22.7263 5.59714 22.909 5.87097L24.195 7.79993C24.4339 8.16142 24.5494 8.59052 24.5244 9.02307C24.4993 9.45563 24.335 9.86858 24.056 10.2001L14.306 21.722C14.1189 21.9447 13.8853 22.1236 13.6217 22.2465C13.3581 22.3693 13.0708 22.4329 12.78 22.433Z"  />
</svg>
