<svg xmlns="http://www.w3.org/2000/svg" width="22.826" height="23.562" viewBox="0 0 22.826 23.562">
  <path id="Comment" d="M686.174,660a.986.986,0,0,1-.442-.1,1,1,0,0,1-.558-.92l.078-3.353a1,1,0,0,1,1-.977h.024a1,1,0,0,1,.976,1.023l-.027,1.2,3.068-2.476-3.079-1.63a2,2,0,0,1-.831-2.7l6.082-11.489a4,4,0,0,1,7.071,3.743l-4.68,8.837a1,1,0,1,1-1.767-.935l4.679-8.838a2,2,0,0,0-.832-2.7,2,2,0,0,0-2.7.832l-6.083,11.489,3.079,1.631a2,2,0,0,1,.32,3.323l-4.746,3.831A1,1,0,0,1,686.174,660ZM708,659a1,1,0,0,0-1-1H692a1,1,0,0,0,0,2h15A1,1,0,0,0,708,659Z" transform="translate(-685.174 -636.438)"  />
</svg>
