<svg xmlns="http://www.w3.org/2000/svg" width="15.731" height="10.443" viewBox="0 0 15.731 10.443"><g transform="translate(-289.857 -116)"><g transform="translate(5.506 1.701)"><g transform="translate(284.351 114.299)"><path d="M12.412,16.656H3.523c-.289,0-.523-.371-.523-.828S3.234,15,3.523,15h8.89c.289,0,.523.371.523.828S12.7,16.656,12.412,16.656Z" transform="translate(-3 -13.344)" /><path d="M22.484,17.968a2.484,2.484,0,1,1,2.484-2.484A2.484,2.484,0,0,1,22.484,17.968Zm0-3.312a.828.828,0,1,0,.828.828A.828.828,0,0,0,22.484,14.656Z" transform="translate(-11.721 -13)" /><path d="M27.312,16.656H24.828a.828.828,0,1,1,0-1.656h2.484a.828.828,0,0,1,0,1.656Z" transform="translate(-12.409 -13.344)" /></g><g transform="translate(300.082 124.742) rotate(180)"><path d="M9.412,1.656H.523C.234,1.656,0,1.285,0,.828S.234,0,.523,0h8.89c.289,0,.523.371.523.828S9.7,1.656,9.412,1.656Z" transform="translate(0 1.656)" /><path d="M2.484,4.968A2.484,2.484,0,1,1,4.968,2.484,2.484,2.484,0,0,1,2.484,4.968Zm0-3.312a.828.828,0,1,0,.828.828A.828.828,0,0,0,2.484,1.656Z" transform="translate(8.279 0)" /><path d="M3.312,1.656H.828A.828.828,0,1,1,.828,0H3.312a.828.828,0,0,1,0,1.656Z" transform="translate(11.591 1.656)"  /></g></g></g></svg>