<svg xmlns="http://www.w3.org/2000/svg" width="22.528" height="14.08" viewBox="0 0 22.528 14.08"><g transform="translate(0 -96)"><g transform="translate(15.488 98.816)"><path d="M356.224,162.816V160h-1.408v2.816H352v1.408h2.816v2.816h1.408v-2.816h2.816v-1.408Z" transform="translate(-352 -160)" fill="#393e46"/></g><g transform="translate(0 96)"><g transform="translate(0 0)"><path d="M7.04,101.632v2.816h3.983A4.224,4.224,0,1,1,7.04,98.816a4.162,4.162,0,0,1,2.736,1.019l1.85-2.123A6.977,6.977,0,0,0,7.04,96a7.04,7.04,0,1,0,7.04,7.04v-1.408Z" transform="translate(0 -96)" fill="#393e46"/></g></g></g></svg>