<?xml version="1.0" encoding="UTF-8"?>
<svg viewBox="0 0 24.001 20.558" width='24' height='20.5' xmlns="http://www.w3.org/2000/svg">
<path transform="translate(-780 -733.44)" d="m798 754h-2a2 2 0 0 1-2-2v-7h-4v7a2 2 0 0 1-2 2h-2a3 3 0 0 1-3-3v-7a1 1 0 0 1 2 0v7a1 1 0 0 0 1 1h2v-7a2 2 0 0 1 2-2h4a2 2 0 0 1 2 2v7h2a1 1 0 0 0 1-1v-7a1 1 0 0 1 2 0v7a3 3 0 0 1-3 3zm5.839-12.456a1 1 0 0 0-0.295-1.383l-9.367-6.076a4 4 0 0 0-4.353 0l-9.368 6.076a1 1 0 1 0 1.088 1.678l9.368-6.076a2 2 0 0 1 2.177 0l4.8 3.112 4.569 2.964a1 1 0 0 0 1.383-0.295z" />
</svg>
