<?xml version="1.0" encoding="UTF-8"?>
<svg viewBox="0 0 4.546 22.097" xmlns="http://www.w3.org/2000/svg">
<path transform="translate(-4.5 -10.125)" d="m8.856 14.04h-4.167a5.251 5.251 0 0 1-0.189-1.958 5.251 5.251 0 0 1 0.189-1.957h4.167a5.251 5.251 0 0 1 0.189 1.957 5.251 5.251 0 0 1-0.189 1.958z" fill="#656c70"/>
<path transform="translate(-4.5 -7.784)" d="m8.856 20.79h-4.167a5.251 5.251 0 0 1-0.189-1.958 5.251 5.251 0 0 1 0.189-1.957h4.167a5.251 5.251 0 0 1 0.189 1.957 5.251 5.251 0 0 1-0.189 1.958z" fill="#656c70"/>
<path transform="translate(-4.5 -5.443)" d="m8.856 27.54h-4.167a5.251 5.251 0 0 1-0.189-1.958 5.251 5.251 0 0 1 0.189-1.957h4.167a5.251 5.251 0 0 1 0.189 1.957 5.251 5.251 0 0 1-0.189 1.958z" fill="#656c70"/>
</svg>
