<svg xmlns="http://www.w3.org/2000/svg" width="18.306" height="24" viewBox="0 0 18.306 24">
  <path id="Left-right" d="M321.153,3728.487H304.847a1,1,0,1,1,0-2h13.645l-3.712-3.247a1,1,0,0,1,1.318-1.506l5.714,5a1,1,0,0,1-.659,1.753Zm-5.12,4.8,1.561-1.153a1,1,0,0,0-1.188-1.61l-1.561,1.154a1,1,0,0,0,1.188,1.609Zm-4.72-12.146a1,1,0,0,0-.093-1.412l-3.712-3.247h13.645a1,1,0,0,0,0-2H304.847a1,1,0,0,0-.659,1.753l5.714,5a1,1,0,0,0,1.411-.094Zm-1.062-9.059.969-.847a1,1,0,0,0-1.317-1.506l-.968.847a1,1,0,1,0,1.316,1.506Z" transform="translate(-303.847 -3709.487)" />
</svg>
