<?xml version="1.0" encoding="UTF-8"?>
<svg viewBox="0 0 18.334 19.176" width='18.334' height='19.176' xmlns="http://www.w3.org/2000/svg">
<path transform="translate(-206.83 -2846.7)" d="M216,2865.883a1.876,1.876,0,0,1-1.045-.318,9.226,9.226,0,0,0-6.917-1.371,1,1,0,0,1-1.205-.973v-15.514a1,1,0,0,1,1-1h2.822a10.662,10.662,0,0,1,2.52.3,1,1,0,1,1-.537,1.926,8.772,8.772,0,0,0-2.231-.228h-1.574v13.357a11.185,11.185,0,0,1,7.167,1.795,11.185,11.185,0,0,1,7.167-1.795v-13.3a9.2,9.2,0,0,0-6.122,1.491l-.045,9.7a1,1,0,0,1-2,0V2849.78a1.008,1.008,0,0,1,.39-.8,11.228,11.228,0,0,1,9-2.05.993.993,0,0,1,.78.98v15.315a1,1,0,0,1-1.205.973,9.226,9.226,0,0,0-6.917,1.371A1.876,1.876,0,0,1,216,2865.883Z"  />
</svg>
