<svg xmlns="http://www.w3.org/2000/svg" width="19.339" height="23.5" viewBox="0 0 19.339 23.5">
  <g id="_2_Entry" data-name="2 Entry" transform="translate(-351.341 -3826.671)">
    <g id="Group_2089" data-name="Group 2089" transform="translate(351.341 3826.671)">
      <path id="Path_4243" data-name="Path 4243" d="M375.06,3826.671H362.82a.979.979,0,0,0-.979.979v2.938a.979.979,0,1,0,1.958,0v-1.958h10.281v19.583H363.8v-1.958a.979.979,0,1,0-1.958,0v2.938a.979.979,0,0,0,.979.979h12.24a.979.979,0,0,0,.979-.979V3827.65A.98.98,0,0,0,375.06,3826.671Z" transform="translate(-356.7 -3826.671)" fill="#393e46"/>
      <path id="Path_4244" data-name="Path 4244" d="M358.519,3849.224a.734.734,0,0,0,1.038,1.039l3.808-3.808a.742.742,0,0,0,.16-.241l0-.011a.711.711,0,0,0,0-.536l0-.011a.733.733,0,0,0-.16-.24l-3.808-3.808a.734.734,0,1,0-1.038,1.038l2.555,2.555h-9a.734.734,0,1,0,0,1.469h9Z" transform="translate(-351.341 -3834.185)" fill="#393e46"/>
    </g>
  </g>
</svg>
