<svg xmlns="http://www.w3.org/2000/svg" width="16.565" height="20.675" viewBox="0 0 16.565 20.675"><g transform="translate(-50.885)"><g transform="translate(55.329 4.444)"><path d="M164.785,110.062a3.838,3.838,0,1,0,3.838,3.838A3.843,3.843,0,0,0,164.785,110.062Zm0,6.06a2.222,2.222,0,1,1,2.222-2.222A2.225,2.225,0,0,1,164.785,116.122Z" transform="translate(-160.947 -110.062)" fill="#f07b3f"/></g><g transform="translate(50.885)"><path d="M59.168,0a8.292,8.292,0,0,0-8.283,8.283v.229c0,2.31,1.324,5,3.936,8a34.047,34.047,0,0,0,3.839,3.753l.508.41.508-.41a34.039,34.039,0,0,0,3.839-3.753c2.612-3,3.936-5.69,3.936-8V8.283A8.292,8.292,0,0,0,59.168,0Zm6.666,8.512c0,3.9-5.029,8.628-6.666,10.063C57.53,17.14,52.5,12.415,52.5,8.512V8.283a6.667,6.667,0,0,1,13.333,0v.229Z" transform="translate(-50.885)" fill="#f07b3f"/></g></g></svg>