<svg xmlns="http://www.w3.org/2000/svg" width="123.687" height="135.117" viewBox="0 0 123.687 135.117"><g transform="translate(-130.5 -217.999)"><path d="M141.206,96.836c-.026.037-.118.157-38.932,50.9-1.912,2.662-1.393,1.611-1.344,40.335.006,6.02-4.451,7.638-16.033,16.126-5.065,3.7-6.167,4.861-8.792,4.867a6.108,6.108,0,0,1-6.245-5.969c-.066-54.867.528-52.571-1.459-55.318C27.383,94.409,29.249,96.852,29.353,96.964a5.64,5.64,0,0,1,4.824-8.891c19-.025,18.7-.021,102.186-.123a5.646,5.646,0,0,1,4.844,8.886Z" transform="translate(102.225 144.05)" /><path d="M278.339,96.591c-.024.036-.111.153-36.615,49.5-1.8,2.589-1.31,1.567-1.264,39.226.006,5.854-4.187,7.428-15.079,15.683-.1-12.841.027-43.056.051-112.992l48.352-.061a5.5,5.5,0,0,1,4.556,8.641Z" transform="translate(-34.844 144.05)"  /><path d="M288.979,22.647c0,12.48-9.889,22.647-22.061,22.647s-22.063-10.159-22.063-22.647S254.752,0,266.918,0,288.979,10.157,288.979,22.647Z" transform="translate(-35.479 217.999)" fill="#ee5f5f"/><path d="M387.265,22.647a22.745,22.745,0,0,1-22.75,22.647V0A22.745,22.745,0,0,1,387.265,22.647Z" transform="translate(-133.078 217.999)" fill="#b94d4d"/><path d="M336.15,86.219a2.574,2.574,0,0,1-1.982,4.428c-1.549,0-1.986-.757-5.28-3.783-.06-.055.33-.378-3.38,3.028-2.633,2.42-6.6-1.253-3.966-3.673l3.322-3.052-3.322-3.052c-2.637-2.42,1.335-6.091,3.966-3.673l3.339,3.066,3.337-3.066c2.631-2.419,6.605,1.251,3.966,3.673l-3.322,3.052Z" transform="translate(-97.408 157.479)" fill="#fff"/></g></svg>