<svg xmlns="http://www.w3.org/2000/svg" width="24" height="16.209" viewBox="0 0 24 16.209">
  <path id="No_view" data-name="No view" d="M312,843a3.011,3.011,0,0,1-2.6-1.506,1,1,0,0,1,1.734-1A1,1,0,0,0,313,840a.981.981,0,0,0-.134-.5,1,1,0,0,1,1.732-1A3,3,0,0,1,312,843Zm11.822-2.4a1.173,1.173,0,0,0,.178-.623,1,1,0,0,0-.178-.569,16.684,16.684,0,0,0-3.062-3.358,1,1,0,0,0-1.275,1.54,14.545,14.545,0,0,1,2.3,2.414A12.334,12.334,0,0,1,312,845.209a11.3,11.3,0,0,1-5.849-1.64,2.011,2.011,0,0,0-2.371.209l-1.59,1.412a1,1,0,1,0,1.328,1.495l1.61-1.4A13.282,13.282,0,0,0,312,847.209,14.439,14.439,0,0,0,323.822,840.6Zm-21.175,1.492a1,1,0,0,0,.113-1.41c-.187-.219-.369-.446-.545-.678A12.334,12.334,0,0,1,312,834.791a11.167,11.167,0,0,1,3.18.463,1.977,1.977,0,0,0,1.872-.379l2.579-2.1a1,1,0,0,0-1.262-1.552l-2.618,2.113a13.175,13.175,0,0,0-3.751-.546,14.439,14.439,0,0,0-11.822,6.613,1.173,1.173,0,0,0-.178.623,1,1,0,0,0,.178.569,17.07,17.07,0,0,0,1.06,1.379,1,1,0,0,0,1.409.113Z" transform="translate(-300 -831)"  />
</svg>
