<?xml version="1.0" encoding="UTF-8"?>
<svg viewBox="0 0 18 24" width='18' height='24' xmlns="http://www.w3.org/2000/svg">
<path transform="translate(-207 -636)" d="m222 660h-10a1 1 0 0 1 0-2h10a1 1 0 0 0 1-1v-4.152a1.625 1.625 0 0 0-0.888-1.314 16.317 16.317 0 0 0-12.224 0 1.625 1.625 0 0 0-0.888 1.314v6.152a1 1 0 0 1-2 0v-6.152a3.587 3.587 0 0 1 2.142-3.17 18.311 18.311 0 0 1 13.716 0 3.587 3.587 0 0 1 2.142 3.17v4.152a3 3 0 0 1-3 3zm-1-19a5 5 0 1 0-5 5 5.006 5.006 0 0 0 5-5zm-2 0a3 3 0 1 1-3-3 3 3 0 0 1 3 3z" />
</svg>
