<svg xmlns="http://www.w3.org/2000/svg" width="24" height="14.393" viewBox="0 0 24 14.393">
  <path id="View" d="M216,847.393a14.441,14.441,0,0,1-11.822-6.614,1,1,0,0,1-.178-.57,1.085,1.085,0,0,1,.178-.6,13.874,13.874,0,0,1,23.644,0,1,1,0,1,1-1.644,1.139A12.474,12.474,0,0,0,216,835a12.331,12.331,0,0,0-9.775,5.2,12.33,12.33,0,0,0,9.775,5.2,11.645,11.645,0,0,0,7.371-2.7,1,1,0,1,1,1.259,1.555A13.629,13.629,0,0,1,216,847.393ZM219,840a3,3,0,0,0-3-3,1,1,0,0,0,0,2,1,1,0,1,1-1,1,1,1,0,0,0-2,0,3,3,0,0,0,6,0Z" transform="translate(-204 -833)" />
</svg>
