<?xml version="1.0" encoding="UTF-8"?>
<svg viewBox="0 0 24 24" width='24' height='24' xmlns="http://www.w3.org/2000/svg">
<defs>
<clipPath id="a">
<rect transform="translate(203 382)" width="24" height="24"   />
</clipPath>
</defs>
<g transform="translate(-203 -382)" clip-path="url(#a)">
<path transform="translate(205 384)" d="M11.73,20h-4a.488.488,0,0,1-.49-.419L6.859,16.93a7.361,7.361,0,0,1-1.689-.98l-2.49,1a.463.463,0,0,1-.17.031.5.5,0,0,1-.44-.25l-2-3.461a.5.5,0,0,1,.12-.64L2.3,10.98a7.878,7.878,0,0,1-.07-.98,7.827,7.827,0,0,1,.07-.98L.189,7.37a.492.492,0,0,1-.12-.64l2-3.461A.5.5,0,0,1,2.5,3.02a.586.586,0,0,1,.18.03l2.49,1a7.634,7.634,0,0,1,1.689-.98L7.24.42A.488.488,0,0,1,7.729,0h4a.488.488,0,0,1,.49.42l.38,2.65a7.371,7.371,0,0,1,1.69.98l2.49-1a.481.481,0,0,1,.17-.03.5.5,0,0,1,.439.249l2,3.461a.505.505,0,0,1-.121.64l-2.11,1.65a7.9,7.9,0,0,1,.07.98,7.914,7.914,0,0,1-.07.98l2.11,1.65a.505.505,0,0,1,.121.64l-2,3.461a.492.492,0,0,1-.429.25.531.531,0,0,1-.18-.031l-2.49-1a7.646,7.646,0,0,1-1.69.98l-.38,2.651A.488.488,0,0,1,11.73,20ZM5.478,13.68h0l.91.7a5.75,5.75,0,0,0,1.23.71l1.06.429.159,1.13L9.03,18h1.4l.2-1.35.16-1.13,1.06-.429a5.9,5.9,0,0,0,1.25-.73l.9-.68,1.04.42,1.27.509.7-1.21-1.08-.84-.89-.7.14-1.13c.031-.314.049-.521.049-.73a5.414,5.414,0,0,0-.049-.73l-.14-1.13.89-.7L17,6.59l-.7-1.21-1.27.509-1.06.43-.91-.7A5.731,5.731,0,0,0,11.83,4.91l-1.06-.43-.16-1.13L10.419,2H9.03l-.2,1.35L8.67,4.48l-1.06.43a5.789,5.789,0,0,0-1.25.73l-.9.68L4.419,5.9l-1.27-.51-.7,1.21,1.08.841.89.7L4.28,9.27c-.026.251-.05.513-.05.73,0,.189.017.4.05.74l.14,1.13-.89.7-1.08.84.7,1.21,1.27-.509,1.059-.43ZM9.729,14a4,4,0,1,1,4-4A4,4,0,0,1,9.729,14Zm0-6a2,2,0,1,0,2,2A2,2,0,0,0,9.729,8Z"  />
</g>
</svg>
